<svg width="1200" height="700" viewBox="0 0 1200 700" fill="none" xmlns="http://www.w3.org/2000/svg">
<path fill-rule="evenodd" clip-rule="evenodd" d="M834.206 -25.998L834.019 -25.9993L833.832 -26H833.645L833.458 -25.998L833.272 -25.9954L833.086 -25.9909L832.901 -25.9857L832.715 -25.9792L832.53 -25.972L832.345 -25.9629L832.16 -25.9531L831.976 -25.942L831.792 -25.9303L831.609 -25.9166L831.425 -25.9023L831.242 -25.8867L831.059 -25.8698L830.876 -25.8522L830.694 -25.8326L830.512 -25.8125L830.33 -25.7916L830.149 -25.7688L829.968 -25.7454L829.787 -25.7206L829.606 -25.6952L829.427 -25.6679L829.39 -25.6627L829.246 -25.6419L829.066 -25.6152L828.887 -25.5872L828.708 -25.5578L828.529 -25.5272L828.351 -25.496L828.172 -25.4634L827.994 -25.4302L827.817 -25.3957L827.64 -25.3599L827.463 -25.3228L827.286 -25.285L827.111 -25.2459L826.935 -25.2062L826.759 -25.1652L826.584 -25.1229L826.41 -25.0799L826.235 -25.0356L826.061 -24.99L825.888 -24.9438L825.715 -24.8962L825.542 -24.8474L825.37 -24.7979L825.198 -24.7478L825.026 -24.6957L824.855 -24.6436L824.684 -24.5895L824.514 -24.5348L824.344 -24.4795L824.175 -24.4222L824.006 -24.3649L823.873 -24.3187L823.837 -24.3063L823.668 -24.2477L823.5 -24.1878L823.332 -24.1272L823.165 -24.066L822.998 -24.0035L822.831 -23.9397L822.666 -23.8752L822.5 -23.8094L822.335 -23.743L822.17 -23.6753L822.006 -23.6069L821.842 -23.5372L821.679 -23.4669L821.516 -23.3953L821.354 -23.323L821.192 -23.2494L821.03 -23.1752L820.87 -23.0996L820.709 -23.0235L820.55 -22.946L820.39 -22.8678L820.231 -22.7884L820.073 -22.7083L819.915 -22.6269L819.758 -22.5455L819.601 -22.4621L819.444 -22.3781L819.289 -22.2935L819.134 -22.2075L818.979 -22.1209L818.825 -22.0337L818.671 -21.9451L818.518 -21.8552L818.366 -21.7654L818.213 -21.6736L818.062 -21.5817L817.911 -21.4886L817.761 -21.3949L817.612 -21.2998L817.462 -21.2041L817.314 -21.107L817.166 -21.01L817.018 -20.911L816.872 -20.812L816.726 -20.7118L816.58 -20.6108L816.435 -20.5086L816.291 -20.4057L816.147 -20.3022L816.003 -20.198L815.861 -20.0925L815.719 -19.9863L815.578 -19.8789L815.437 -19.7715L815.297 -19.6621L815.158 -19.5527L815.019 -19.442L814.881 -19.3313L814.744 -19.2186L814.607 -19.106L814.471 -18.992L814.335 -18.8774L814.201 -18.7621L814.067 -18.6456L813.933 -18.5284L813.801 -18.4105L813.668 -18.292L813.537 -18.1728L813.407 -18.0523L813.276 -17.9312L813.147 -17.8095L813.02 -17.6877L813.018 -17.6864L812.891 -17.5627L812.764 -17.4383L812.637 -17.3133L812.512 -17.1876L812.387 -17.0606L812.263 -16.933L812.139 -16.8053L812.017 -16.6757L811.894 -16.5462L811.773 -16.4159L811.652 -16.2844L811.533 -16.1522L811.414 -16.0194L811.296 -15.8859L811.178 -15.7517L811.062 -15.6169L810.946 -15.4808L810.831 -15.3447L810.717 -15.2073L810.603 -15.0693L810.49 -14.9306L810.378 -14.7912L810.266 -14.6512L810.156 -14.5099L810.047 -14.3686L809.938 -14.2267L809.83 -14.0834L809.723 -13.9395L809.616 -13.7956L809.511 -13.6504L809.406 -13.5045L809.302 -13.358L809.2 -13.2108L809.097 -13.063L808.996 -12.9145L808.895 -12.7654L808.796 -12.6156L808.697 -12.4652L808.599 -12.3141L808.502 -12.1618L808.406 -12.0094L808.31 -11.8564L808.216 -11.7027L808.123 -11.5484L808.03 -11.3927L807.938 -11.2371L807.847 -11.0808L807.758 -10.9239L807.668 -10.7663L807.58 -10.608L807.493 -10.4492L807.406 -10.2896L807.321 -10.1294L807.236 -9.96859L807.153 -9.80709L807.07 -9.64495L806.989 -9.48215L806.908 -9.31936L806.828 -9.15526L806.749 -8.99051L806.672 -8.82576L806.594 -8.66036L806.519 -8.49431L806.444 -8.32696L806.37 -8.15961L806.297 -7.9916L806.224 -7.8236L806.153 -7.65429L806.083 -7.48433L806.014 -7.31437L805.946 -7.14376L805.878 -6.9725L805.862 -6.92822L805.814 -6.79994L805.75 -6.62738L805.688 -6.45351L805.626 -6.27965L805.565 -6.10513L805.506 -5.92996L805.447 -5.7548L805.39 -5.57833L805.334 -5.40186L805.279 -5.22474L805.224 -5.04762L805.171 -4.86919L805.119 -4.69077L805.068 -4.51169L805.017 -4.33262L804.969 -4.15224L804.921 -3.97186L804.874 -3.79084L804.828 -3.60981L804.784 -3.42813L804.741 -3.2458L804.698 -3.06282L804.657 -2.87984L804.616 -2.6962L804.577 -2.51192L804.539 -2.32698L804.503 -2.14205L804.467 -1.95711L804.432 -1.77087L804.399 -1.58464L804.367 -1.3984L804.338 -1.22844L804.335 -1.21086L804.308 -1.02332L804.281 -0.835127L804.256 -0.646286L804.232 -0.457443L804.209 -0.26795L804.188 -0.0784569L804.167 0.111689L804.147 0.301834L804.129 0.49263L804.112 0.684076L804.096 0.874872L804.081 1.06697L804.068 1.25907L804.056 1.45117L804.045 1.64392L804.035 1.83732L804.026 2.03072L804.019 2.22412L804.012 2.41817L804.007 2.61222L804.004 2.80692L804.001 3.00163L804 3.19698V3.39103L804.001 3.58574L804.003 3.77979L804.005 3.869L804.009 3.97384L804.017 4.16724L804.027 4.35999L804.037 4.55274L804.049 4.74549L804.062 4.93759L804.077 5.12969L804.092 5.32113L804.109 5.51258L804.127 5.70338L804.146 5.89352L804.166 6.08366L804.188 6.27381L804.21 6.4633L804.234 6.65215L804.259 6.84099L804.285 7.02918L804.313 7.21737L804.341 7.40491L804.371 7.5918L804.401 7.77869L804.433 7.96558L804.466 8.15117L804.5 8.33675L804.535 8.52234L804.572 8.70727L804.61 8.89156L804.627 8.9723L804.649 9.07519L804.691 9.25882L804.734 9.44115L804.778 9.62348L804.823 9.80516L804.869 9.98684L804.916 10.1679L804.964 10.3482L805.013 10.528L805.064 10.7077L805.115 10.8861L805.168 11.0652L805.221 11.243L805.276 11.4207L805.332 11.5979L805.389 11.7743L805.447 11.9501L805.505 12.126L805.565 12.3005L805.626 12.475L805.688 12.6495L805.751 12.8227L805.815 12.9959L805.88 13.1679L805.946 13.3398L806.013 13.511L806.081 13.6823L806.15 13.8522L806.22 14.0222L806.291 14.1915L806.364 14.3602L806.437 14.5282L806.485 14.6389L806.511 14.6955L806.587 14.8616L806.665 15.0276L806.743 15.1924L806.822 15.3571L806.902 15.5212L806.984 15.6847L807.066 15.8475L807.149 16.0096L807.233 16.1711L807.318 16.3319L807.404 16.4921L807.49 16.6523L807.578 16.8112L807.667 16.9695L807.756 17.1277L807.847 17.2846L807.938 17.4416L808.03 17.5972L808.124 17.7528L808.217 17.9072L808.312 18.0615L808.408 18.2145L808.505 18.3675L808.602 18.5193L808.701 18.6703L808.8 18.8214L808.9 18.9712L809.001 19.121L809.103 19.2694L809.206 19.4172L809.31 19.5644L809.414 19.7116L809.519 19.8574L809.625 20.0027L809.732 20.1472L809.84 20.2911L809.948 20.4344L810.057 20.5763L810.167 20.7183L810.279 20.8596L810.39 20.9996L810.503 21.139L810.616 21.2783L810.731 21.4164L810.846 21.5538L810.961 21.6905L811.078 21.8266L811.195 21.9614L811.313 22.0962L811.432 22.2297L811.552 22.3625L811.672 22.4954L811.793 22.6263L811.915 22.7571L812.038 22.8874L812.161 23.0163L812.286 23.1446L812.41 23.2722L812.536 23.3992L812.662 23.5255L812.789 23.6512L812.917 23.7756L813.046 23.8993L813.175 24.0224L813.305 24.1442L813.435 24.2659L813.567 24.3864L813.699 24.5062L813.831 24.6254L813.965 24.7432L814.099 24.8605L814.234 24.977L814.361 25.0858L814.369 25.0929L814.506 25.2069L814.643 25.3208L814.781 25.4335L814.92 25.5448L815.06 25.6562L815.2 25.7662L815.34 25.8756L815.481 25.9837L815.623 26.0912L815.766 26.198L815.909 26.3041L816.053 26.409L816.197 26.5132L816.342 26.616L816.488 26.7183L816.634 26.8199L816.781 26.9208L816.928 27.0204L817.076 27.1194L817.225 27.2171L817.374 27.3141L817.524 27.4105L817.674 27.5056L817.825 27.6L817.977 27.6931L818.129 27.7862L818.282 27.8774L818.435 27.9685L818.589 28.0584L818.743 28.147L818.898 28.2349L819.054 28.3221L819.209 28.4081L819.366 28.4934L819.523 28.5774L819.681 28.6607L819.838 28.7428L819.997 28.8242L820.156 28.9049L820.317 28.9844L820.476 29.0632L820.637 29.1407L820.798 29.2175L820.96 29.293L821.122 29.3673L821.285 29.4415L821.448 29.5138L821.611 29.5854L821.776 29.6564L821.94 29.7261L822.105 29.7951L822.271 29.8628L822.437 29.9299L822.603 29.9957L822.77 30.0601L822.937 30.1239L823.106 30.1871L823.274 30.249L823.442 30.3095L823.612 30.3694L823.781 30.4281L823.951 30.486L824.122 30.5427L824.292 30.598L824.464 30.6527L824.635 30.7061L824.807 30.7589L824.979 30.8103L825.152 30.8611L825.325 30.9106L825.499 30.9588L825.673 31.0063L825.848 31.0525L826.022 31.0975L826.197 31.1417L826.373 31.1847L826.548 31.2264L826.725 31.2674L826.901 31.3078L827.079 31.3462L827.256 31.384L827.433 31.4204L827.611 31.4563L827.789 31.4901L827.968 31.524L828.147 31.5559L828.327 31.5872L828.506 31.6171L828.686 31.6458L828.866 31.6738L829.046 31.7005L829.227 31.7259L829.408 31.7506L829.59 31.774L829.772 31.7962L829.954 31.817L830.136 31.8372L830.318 31.8561L830.501 31.8737L830.684 31.8899L830.867 31.9056L831.051 31.9199L831.235 31.9329L831.419 31.9446L831.603 31.9557L831.788 31.9648L831.973 31.9733L832.158 31.9811L832.343 31.987L832.529 31.9922L832.715 31.9954L832.901 31.998L833.087 32H833.273L833.46 31.9993L833.647 31.9967L833.834 31.9935L833.852 31.993C834.067 31.9979 834.283 32.0002 834.5 32C849.677 31.9835 862 19.4237 862 3.97061C862 3.62653 861.994 3.2839 861.982 2.94283L864 2.93651L863.995 2.75092L863.988 2.55948L863.985 2.4872L863.98 2.36803L863.972 2.17658L863.962 1.98579L863.951 1.79499L863.939 1.60485L863.926 1.4147L863.911 1.22521L863.895 1.03637L863.878 0.847523L863.86 0.659332L863.841 0.47114L863.82 0.2836L863.799 0.0960598L863.776 -0.0908279L863.753 -0.277065L863.727 -0.463305L863.701 -0.649542L863.674 -0.834476L863.645 -1.01941L863.616 -1.20435L863.585 -1.38798L863.553 -1.57226L863.52 -1.75525L863.486 -1.93823L863.451 -2.12056L863.414 -2.30289L863.377 -2.48457L863.339 -2.6656L863.299 -2.84597L863.258 -3.02635L863.216 -3.20608L863.174 -3.3858L863.13 -3.56488L863.085 -3.7433L863.039 -3.92107L862.992 -4.09884L862.944 -4.27597L862.894 -4.45244L862.844 -4.62825L862.792 -4.80407L862.74 -4.97924L862.687 -5.15376L862.632 -5.32827L862.577 -5.50214L862.52 -5.67535L862.463 -5.84792L862.404 -6.01983L862.344 -6.19174L862.284 -6.363L862.222 -6.53361L862.159 -6.70357L862.096 -6.87287L862.031 -7.04218L861.965 -7.21084L861.899 -7.37884L861.831 -7.54619L861.763 -7.7129L861.693 -7.8796L861.623 -8.045L861.551 -8.2104L861.479 -8.37515L861.405 -8.53925L861.331 -8.70334L861.255 -8.86614L861.179 -9.02828L861.102 -9.19043L861.024 -9.35192L860.945 -9.51276L860.865 -9.67295L860.784 -9.83249L860.702 -9.99138L860.619 -10.1496L860.536 -10.3072L860.451 -10.4648L860.365 -10.6211L860.279 -10.7774L860.192 -10.9323L860.103 -11.0873L860.014 -11.2416L859.924 -11.3947L859.833 -11.5477L859.742 -11.7001L859.648 -11.8518L859.555 -12.0029L859.461 -12.1533L859.366 -12.3031L859.269 -12.4515L859.172 -12.6L859.075 -12.7478L858.976 -12.895L858.877 -13.0415L858.776 -13.1874L858.675 -13.3326L858.572 -13.4771L858.47 -13.6211L858.366 -13.7643L858.262 -13.9063L858.156 -14.0482L858.05 -14.1895L857.943 -14.3295L857.836 -14.4695L857.727 -14.6089L857.618 -14.7469L857.508 -14.8843L857.397 -15.0217L857.285 -15.1578L857.172 -15.2933L857.059 -15.4281L856.945 -15.5622L856.83 -15.6957L856.715 -15.8279L856.598 -15.9601L856.481 -16.091L856.363 -16.2219L856.265 -16.3287L856.245 -16.3515L856.126 -16.481L856.007 -16.61L855.886 -16.7383L855.766 -16.8659L855.644 -16.9922L855.522 -17.1185L855.398 -17.2436L855.275 -17.368L855.15 -17.4917L855.025 -17.6141L854.899 -17.7365L854.773 -17.8576L854.645 -17.9788L854.517 -18.0986L854.388 -18.2171L854.259 -18.3356L854.128 -18.4535L853.997 -18.57L853.866 -18.6859L853.734 -18.8012L853.601 -18.9152L853.467 -19.0285L853.333 -19.1418L853.198 -19.2531L853.062 -19.3645L852.926 -19.4745L852.789 -19.5846L852.651 -19.6927L852.513 -19.8008L852.374 -19.9076L852.234 -20.0137L852.094 -20.1192L851.954 -20.224L851.812 -20.3276L851.67 -20.4305L851.528 -20.5327L851.384 -20.6336L851.24 -20.7339L851.096 -20.8335L850.951 -20.9319L850.805 -21.0295L850.658 -21.1266L850.512 -21.2223L850.364 -21.3174L850.216 -21.4118L850.067 -21.5049L849.918 -21.5974L849.768 -21.6892L849.617 -21.7797L849.466 -21.8696L849.315 -21.9581L849.163 -22.0467L849.01 -22.1333L848.857 -22.2199L848.703 -22.3052L848.548 -22.3892L848.393 -22.4726L848.238 -22.5553L848.082 -22.6367L847.926 -22.7174L847.769 -22.7975L847.611 -22.8763L847.453 -22.9538L847.295 -23.0313L847.136 -23.1068L846.976 -23.1823L846.816 -23.2559L846.655 -23.3295L846.494 -23.4018L846.332 -23.4728L846.17 -23.5431L846.008 -23.6121L845.844 -23.6805L845.681 -23.7482L845.517 -23.8146L845.352 -23.8798L845.188 -23.9442L845.063 -23.9924L845.022 -24.008L844.857 -24.0712L844.691 -24.1344L844.524 -24.1956L844.357 -24.2561L844.19 -24.316L844.022 -24.374L843.854 -24.432L843.685 -24.4886L843.516 -24.544L843.346 -24.5987L843.176 -24.6521L843.006 -24.7042L842.835 -24.7556L842.664 -24.8064L842.492 -24.8559L842.32 -24.9041L842.147 -24.9516L841.975 -24.9978L841.801 -25.0428L841.627 -25.087L841.453 -25.13L841.278 -25.1723L841.104 -25.2134L840.929 -25.2531L840.753 -25.2922L840.576 -25.3299L840.4 -25.3664L840.223 -25.4022L840.046 -25.4367L839.868 -25.4706L839.69 -25.5025L839.512 -25.5344L839.333 -25.5644L839.21 -25.5845L839.154 -25.5937L838.976 -25.6236L838.796 -25.6523L838.616 -25.6796L838.437 -25.7057L838.255 -25.7311L838.075 -25.7552L837.894 -25.7779L837.712 -25.7994L837.531 -25.8203L837.348 -25.8398L837.166 -25.8587L836.983 -25.8756L836.8 -25.8919L836.617 -25.9069L836.433 -25.9206L836.249 -25.9336L836.064 -25.9453L835.88 -25.9557L835.695 -25.9648L835.509 -25.9733L835.324 -25.9798L835.138 -25.9857L834.953 -25.9902L834.766 -25.9941L834.579 -25.9961L834.392 -25.9974H834.248L834.206 -25.998ZM978.731 0H1201V703H327.84C367.456 461.431 562.13 471.215 736.152 479.96C842.174 485.288 940.53 490.231 991.485 437.714C1135.58 289.202 1068.78 167.41 1010.63 61.3892C999.085 40.3327 987.877 19.8982 978.731 0ZM183 601.465C183 595.689 187.689 591 193.464 591C199.24 591 203.928 595.689 203.928 601.465C203.928 607.24 199.24 611.929 193.464 611.929C187.689 611.929 183 607.24 183 601.465ZM135.964 431C127.153 431 120 438.154 120 446.965C120 455.775 127.153 462.929 135.964 462.929C144.775 462.929 151.928 455.775 151.928 446.965C151.928 438.154 144.775 431 135.964 431ZM267 211.501C267 206.809 270.809 203 275.5 203C280.191 203 284 206.809 284 211.501C284 216.191 280.191 220.001 275.5 220.001C270.809 220.001 267 216.191 267 211.501ZM834.106 17.9961L834.125 17.9956L834.196 17.9972L834.263 17.9983L834.321 17.9991L834.366 17.9995L834.419 17.9999L834.5 18C842.503 17.9914 849 11.4873 849 3.48446C849 3.13753 848.988 2.79345 848.964 2.45262L851 2.44625L850.995 2.34776L850.989 2.24348L850.987 2.20422L850.983 2.13856L850.976 2.03428L850.969 1.93064L850.961 1.82637L850.952 1.72273L850.943 1.61974L850.934 1.5161L850.923 1.41311L850.912 1.31012L850.9 1.20777L850.888 1.10542L850.874 1.00307L850.861 0.901367L850.847 0.799664L850.832 0.69796L850.816 0.596897L850.799 0.495836L850.783 0.39542L850.765 0.294357L850.747 0.194584L850.729 0.0941677L850.71 -0.0056076L850.69 -0.105381L850.669 -0.20451L850.649 -0.30364L850.627 -0.402126L850.604 -0.500612L850.582 -0.599098L850.558 -0.696941L850.534 -0.794785L850.509 -0.892628L850.484 -0.989826L850.458 -1.08638L850.432 -1.18358L850.406 -1.28013L850.378 -1.37605L850.349 -1.47196L850.321 -1.56723L850.292 -1.66249L850.262 -1.75776L850.232 -1.85238L850.201 -1.94701L850.17 -2.04099L850.137 -2.13497L850.105 -2.22895L850.072 -2.32229L850.038 -2.41498L850.004 -2.50767L849.969 -2.60036L849.934 -2.69241L849.898 -2.78382L849.861 -2.87523L849.825 -2.96663L849.787 -3.05739L849.749 -3.14816L849.711 -3.23827L849.672 -3.32839L849.633 -3.41787L849.593 -3.50734L849.552 -3.59617L849.511 -3.685L849.469 -3.77319L849.427 -3.86138L849.384 -3.94892L849.341 -4.03582L849.298 -4.12336L849.254 -4.20962L849.209 -4.29587L849.164 -4.38213L849.119 -4.46774L849.072 -4.55335L849.026 -4.63832L848.979 -4.72265L848.931 -4.80697L848.883 -4.89065L848.834 -4.97433L848.785 -5.05802L848.736 -5.14041L848.686 -5.22345L848.636 -5.3052L848.585 -5.38695L848.534 -5.4687L848.482 -5.5498L848.43 -5.63027L848.377 -5.71073L848.324 -5.79055L848.27 -5.87037L848.216 -5.94954L848.162 -6.02872L848.107 -6.10725L848.052 -6.18514L847.996 -6.26302L847.94 -6.34027L847.883 -6.41751L847.826 -6.49411L847.768 -6.57007L847.71 -6.64603L847.651 -6.72198L847.593 -6.79665L847.533 -6.87132L847.474 -6.94599L847.414 -7.02002L847.353 -7.0934L847.292 -7.16614L847.23 -7.23888L847.169 -7.31161L847.107 -7.38371L847.044 -7.45516L846.981 -7.52597L846.918 -7.59677L846.854 -7.66694L846.79 -7.7371L846.725 -7.80662L846.661 -7.8755L846.606 -7.93214L846.595 -7.94437L846.53 -8.01325L846.465 -8.08212L846.399 -8.14971L846.332 -8.2173L846.266 -8.28489L846.199 -8.35184L846.131 -8.41814L846.064 -8.48379L845.996 -8.54945L845.927 -8.61511L845.858 -8.67948L845.789 -8.74385L845.719 -8.80758L845.649 -8.8713L845.579 -8.93438L845.508 -8.99682L845.437 -9.05926L845.365 -9.12041L845.294 -9.18221L845.222 -9.24272L845.149 -9.30322L845.077 -9.36309L845.003 -9.42295L844.93 -9.48217L844.855 -9.54075L844.781 -9.59868L844.706 -9.65662L844.632 -9.71391L844.556 -9.77055L844.481 -9.8272L844.405 -9.8832L844.329 -9.93856L844.252 -9.99327L844.175 -10.048L844.098 -10.1021L844.021 -10.1555L843.943 -10.2089L843.865 -10.2617L843.786 -10.3138L843.707 -10.3653L843.628 -10.4168L843.549 -10.4677L843.469 -10.5179L843.389 -10.5681L843.308 -10.617L843.228 -10.6659L843.146 -10.7149L843.065 -10.7625L842.984 -10.8101L842.902 -10.8571L842.819 -10.9035L842.737 -10.9492L842.654 -10.9949L842.571 -11.0399L842.488 -11.0843L842.404 -11.1281L842.32 -11.1719L842.237 -11.215L842.152 -11.2575L842.067 -11.2993L841.983 -11.3405L841.898 -11.3817L841.812 -11.4223L841.726 -11.4622L841.64 -11.5015L841.554 -11.5407L841.468 -11.5787L841.38 -11.6167L841.293 -11.654L841.206 -11.6914L841.119 -11.7274L841.031 -11.7635L840.943 -11.7982L840.854 -11.833L840.766 -11.8677L840.677 -11.9012L840.588 -11.934L840.521 -11.9591L840.499 -11.9675L840.41 -12.0003L840.321 -12.0332L840.232 -12.0653L840.141 -12.0969L840.052 -12.1278L839.962 -12.158L839.871 -12.1883L839.78 -12.2173L839.689 -12.2462L839.599 -12.2745L839.507 -12.3022L839.415 -12.3293L839.324 -12.3563L839.232 -12.382L839.14 -12.4078L839.047 -12.4329L838.955 -12.4574L838.862 -12.4812L838.768 -12.5044L838.675 -12.5269L838.582 -12.5488L838.488 -12.5707L838.394 -12.5919L838.3 -12.6118L838.206 -12.6318L838.111 -12.6511L838.017 -12.6698L837.922 -12.6884L837.827 -12.7058L837.732 -12.7226L837.637 -12.7393L837.541 -12.7548L837.445 -12.7702L837.38 -12.7805L837.35 -12.785L837.254 -12.8011L837.158 -12.8159L837.062 -12.8301L836.965 -12.8442L836.869 -12.8571L836.772 -12.87L836.675 -12.8822L836.578 -12.8931L836.481 -12.9041L836.383 -12.9144L836.286 -12.924L836.188 -12.9331L836.09 -12.9414L835.992 -12.9491L835.894 -12.9562L835.796 -12.9633L835.698 -12.9691L835.598 -12.9743L835.5 -12.9794L835.401 -12.9833L835.302 -12.9865L835.202 -12.9897L835.103 -12.9916L835.003 -12.9936L834.904 -12.9942L834.804 -12.9949L834.727 -12.9942L834.704 -12.9949L834.604 -12.9974L834.504 -12.9987L834.405 -13H834.305H834.206L834.106 -12.9987L834.006 -12.9974L833.908 -12.9949L833.809 -12.9923L833.71 -12.9884L833.611 -12.9846L833.512 -12.98L833.413 -12.9743L833.315 -12.9685L833.217 -12.962L833.119 -12.9549L833.021 -12.9472L832.923 -12.9388L832.825 -12.9298L832.727 -12.9202L832.63 -12.9099L832.533 -12.8989L832.436 -12.8874L832.339 -12.8751L832.242 -12.8629L832.145 -12.8494L832.126 -12.8468L832.049 -12.8371L831.952 -12.8249L831.856 -12.812L831.759 -12.7985L831.663 -12.7844L831.567 -12.7702L831.471 -12.7548L831.375 -12.7387L831.279 -12.7226L831.184 -12.7052L831.089 -12.6878L830.993 -12.6691L830.898 -12.6505L830.804 -12.6312L830.709 -12.6112L830.614 -12.5906L830.52 -12.5694L830.426 -12.5475L830.332 -12.5256L830.238 -12.5024L830.144 -12.4792L830.051 -12.4548L829.958 -12.4303L829.864 -12.4052L829.771 -12.3795L829.679 -12.3531L829.586 -12.3267L829.494 -12.299L829.402 -12.2713L829.311 -12.243L829.219 -12.2134L829.147 -12.1902L829.127 -12.1844L829.035 -12.1555L828.944 -12.1259L828.853 -12.0956L828.762 -12.0653L828.671 -12.0338L828.58 -12.0023L828.49 -11.9701L828.4 -11.9372L828.309 -11.9038L828.22 -11.8697L828.13 -11.8349L828.04 -11.8001L827.952 -11.7647L827.863 -11.7287L827.774 -11.692L827.685 -11.6547L827.597 -11.6167L827.509 -11.5787L827.422 -11.5401L827.334 -11.5008L827.247 -11.4609L827.16 -11.4204L827.073 -11.3798L826.986 -11.338L826.9 -11.2961L826.814 -11.2536L826.728 -11.2105L826.643 -11.1674L826.558 -11.123L826.473 -11.0786L826.387 -11.0335L826.303 -10.9878L826.219 -10.9421L826.135 -10.8951L826.052 -10.8481L825.968 -10.8005L825.885 -10.7528L825.803 -10.7039L825.72 -10.655L825.638 -10.6054L825.556 -10.5552L825.475 -10.5044L825.393 -10.4535L825.312 -10.402L825.231 -10.3499L825.151 -10.2971L825.07 -10.2443L824.991 -10.1902L824.911 -10.1362L824.832 -10.0821L824.753 -10.0267L824.674 -9.97139L824.596 -9.91538L824.518 -9.85874L824.44 -9.80209L824.364 -9.7448L824.286 -9.68687L824.21 -9.62829L824.134 -9.56972L824.058 -9.5105L823.982 -9.45063L823.907 -9.39013L823.832 -9.32962L823.757 -9.26847L823.683 -9.20667L823.609 -9.14487L823.535 -9.08179L823.462 -9.01871L823.389 -8.95563L823.317 -8.8919L823.245 -8.82753L823.173 -8.76316L823.172 -8.76252L823.101 -8.69686L823.031 -8.6312L822.96 -8.5649L822.889 -8.49796L822.82 -8.43101L822.75 -8.36342L822.681 -8.29519L822.612 -8.22696L822.544 -8.15808L822.476 -8.08856L822.408 -8.0184L822.341 -7.94823L822.274 -7.87807L822.208 -7.80662L822.142 -7.73517L822.076 -7.66307L822.011 -7.59098L821.947 -7.51824L821.882 -7.44486L821.818 -7.37083L821.755 -7.29681L821.692 -7.22278L821.629 -7.14747L821.566 -7.07216L821.505 -6.99684L821.443 -6.92024L821.382 -6.84364L821.321 -6.76704L821.261 -6.6898L821.202 -6.61191L821.142 -6.53338L821.083 -6.45485L821.025 -6.37632L820.967 -6.2965L820.909 -6.21668L820.852 -6.13686L820.795 -6.0564L820.739 -5.97529L820.683 -5.89354L820.628 -5.81179L820.573 -5.73004L820.519 -5.64765L820.465 -5.56461L820.411 -5.48093L820.358 -5.39725L820.306 -5.31356L820.254 -5.22924L820.202 -5.14427L820.151 -5.0593L820.1 -4.97369L820.051 -4.88744L820.001 -4.80118L819.951 -4.71428L819.903 -4.62738L819.855 -4.53984L819.807 -4.45229L819.76 -4.36411L819.714 -4.27592L819.667 -4.18709L819.621 -4.09761L819.576 -4.00814L819.532 -3.91802L819.488 -3.8279L819.444 -3.73714L819.401 -3.64638L819.358 -3.55497L819.316 -3.46357L819.275 -3.37152L819.234 -3.27883L819.193 -3.18613L819.154 -3.09344L819.114 -3.0001L819.104 -2.97564L819.077 -2.90612L819.04 -2.8115L819.004 -2.71623L818.968 -2.62161L818.933 -2.5257L818.898 -2.43043L818.865 -2.33387L818.831 -2.23796L818.798 -2.14076L818.766 -2.04421L818.734 -1.94701L818.703 -1.84917L818.672 -1.75132L818.643 -1.65348L818.613 -1.55499L818.584 -1.45651L818.556 -1.35738L818.529 -1.25825L818.502 -1.15847L818.475 -1.0587L818.449 -0.958284L818.424 -0.857866L818.399 -0.75745L818.375 -0.656387L818.352 -0.555328L818.329 -0.454266L818.307 -0.352562L818.286 -0.250214L818.264 -0.148508L818.244 -0.045517L818.224 0.0568314L818.207 0.150169L818.206 0.159824L818.19 0.26346L818.174 0.367096L818.159 0.471376L818.145 0.575012L818.132 0.679291L818.119 0.784214L818.106 0.889137L818.095 0.994061L818.084 1.09898L818.073 1.20455L818.064 1.31012L818.055 1.41569L818.047 1.52125L818.039 1.62746L818.032 1.73367L818.026 1.84053L818.021 1.94674L818.016 2.05359L818.012 2.16109L818.008 2.26794L818.005 2.37544L818.003 2.48294L818.001 2.59044L818 2.69729V2.80479L818.001 2.91165V2.96121L818.003 3.01914L818.009 3.12535L818.015 3.23221L818.021 3.33842L818.028 3.44463L818.037 3.55084L818.045 3.65705L818.054 3.76262L818.064 3.86819L818.075 3.97311L818.086 4.07803L818.098 4.18296L818.11 4.28788L818.124 4.39216L818.137 4.49708L818.152 4.60072L818.167 4.705L818.182 4.80863L818.199 4.91163L818.216 5.01526L818.234 5.11825L818.252 5.22125L818.271 5.3236L818.291 5.42594L818.311 5.52829L818.331 5.63L818.353 5.7317L818.362 5.77612L818.376 5.83276L818.4 5.93382L818.425 6.03424L818.451 6.13466L818.478 6.23443L818.504 6.33421L818.532 6.43398L818.56 6.53311L818.589 6.6316L818.618 6.73072L818.648 6.82857L818.678 6.92705L818.709 7.02489L818.741 7.12209L818.773 7.21929L818.806 7.31649L818.839 7.41305L818.874 7.50896L818.908 7.60551L818.943 7.70078L818.979 7.79669L819.015 7.89132L819.052 7.98658L819.089 8.08057L819.126 8.17519L819.165 8.26917L819.204 8.36251L819.243 8.45584L819.283 8.54854L819.324 8.64123L819.365 8.73328L819.407 8.82533L819.434 8.88583L819.449 8.91673L819.493 9.0075L819.538 9.09826L819.583 9.18773L819.628 9.27785L819.675 9.36668L819.721 9.45615L819.768 9.54434L819.816 9.63253L819.864 9.72072L819.913 9.80826L819.962 9.89516L820.012 9.98206L820.062 10.0683L820.113 10.1546L820.164 10.2402L820.215 10.3258L820.267 10.4108L820.32 10.4951L820.373 10.5794L820.427 10.6631L820.481 10.7468L820.535 10.8298L820.59 10.9122L820.645 10.9946L820.701 11.0764L820.757 11.1581L820.815 11.2392L820.871 11.3197L820.93 11.4001L820.987 11.4799L821.046 11.5598L821.105 11.6389L821.165 11.7175L821.225 11.796L821.285 11.8739L821.346 11.9511L821.407 12.0284L821.468 12.105L821.531 12.1816L821.594 12.2575L821.656 12.3329L821.72 12.4082L821.784 12.4828L821.848 12.5569L821.912 12.6309L821.977 12.7043L822.043 12.777L822.109 12.8497L822.175 12.9218L822.241 12.9933L822.308 13.0647L822.376 13.1356L822.444 13.2057L822.512 13.2759L822.581 13.3454L822.65 13.4149L822.719 13.4832L822.789 13.5514L822.86 13.6196L822.93 13.6866L823.001 13.7535L823.072 13.8198L823.144 13.8861L823.216 13.9518L823.288 14.0168L823.361 14.0811L823.435 14.1455L823.508 14.2092L823.582 14.273L823.657 14.3354L823.731 14.3979L823.806 14.4596L823.876 14.5176L823.882 14.5214L823.958 14.5813L824.034 14.6418L824.111 14.701L824.188 14.7596L824.266 14.8182L824.344 14.8761L824.422 14.9341L824.5 14.9907L824.58 15.0473L824.658 15.1033L824.738 15.1593L824.818 15.2141L824.898 15.2688L824.979 15.3228L825.059 15.3769L825.141 15.4297L825.222 15.4825L825.304 15.5346L825.386 15.5861L825.468 15.6376L825.551 15.6878L825.633 15.738L825.717 15.7876L825.8 15.8372L825.884 15.8854L825.968 15.9337L826.052 15.9814L826.137 16.0283L826.222 16.0747L826.307 16.121L826.393 16.1667L826.478 16.2118L826.564 16.2562L826.651 16.3L826.737 16.3431L826.824 16.3862L826.911 16.4287L826.998 16.4706L827.086 16.5118L827.173 16.553L827.262 16.5929L827.35 16.6328L827.438 16.672L827.527 16.7107L827.616 16.7486L827.705 16.7866L827.795 16.8233L827.884 16.86L827.975 16.8961L828.065 16.9315L828.155 16.9662L828.246 17.0003L828.337 17.0344L828.428 17.0679L828.519 17.1001L828.611 17.1323L828.703 17.1638L828.795 17.1947L828.887 17.2256L828.979 17.2552L829.072 17.2848L829.165 17.3132L829.258 17.3415L829.351 17.3692L829.444 17.3962L829.537 17.4226L829.632 17.4483L829.725 17.4741L829.819 17.4986L829.914 17.523L830.008 17.5462L830.103 17.5694L830.198 17.5919L830.293 17.6138L830.388 17.635L830.483 17.6556L830.579 17.6756L830.675 17.6949L830.77 17.7142L830.866 17.7322L830.963 17.7502L831.059 17.767L831.156 17.7837L831.252 17.7998L831.348 17.8153L831.446 17.8301L831.542 17.8442L831.64 17.8577L831.737 17.8706L831.835 17.8828L831.932 17.8944L832.03 17.9054L832.128 17.9163L832.226 17.926L832.324 17.935L832.422 17.944L832.52 17.9517L832.618 17.9594L832.717 17.9659L832.816 17.9723L832.914 17.9781L833.013 17.9826L833.112 17.9871L833.212 17.991L833.31 17.9942L833.409 17.9961L833.509 17.9981L833.609 17.9994L833.708 18H833.807L833.907 17.9994L834.007 17.9981L834.106 17.9961ZM54.1587 712.7L54.1686 712.696L54.365 712.614L54.5614 712.531L54.7569 712.448L54.9516 712.362L55.1454 712.276L55.3392 712.189L55.5322 712.1L55.7251 712.011L55.9163 711.92L56.1076 711.828L56.2988 711.735L56.4892 711.641L56.6787 711.546L56.8674 711.449L57.0552 711.351L57.243 711.253L57.43 711.153L57.6169 711.052L57.803 710.95L57.9874 710.847L58.1727 710.743L58.3562 710.637L58.5397 710.53L58.7224 710.423L58.9042 710.315L59.0851 710.204L59.2661 710.094L59.4453 709.982L59.6245 709.869L59.8038 709.755L59.9813 709.64L60.1588 709.524L60.3346 709.407L60.5104 709.288L60.6854 709.169L60.8603 709.048L61.0336 708.927L61.2068 708.805L61.3792 708.681L61.5507 708.557L61.7213 708.431L61.8912 708.305L62.0601 708.177L62.2282 708.049L62.3963 707.919L62.5635 707.789L62.729 707.657L62.8945 707.524L63.0592 707.39L63.223 707.256L63.3859 707.121L63.5489 706.984L63.7101 706.847L63.8705 706.708L64.0308 706.569L64.1895 706.428L64.3481 706.286L64.5051 706.145L64.662 706.001L64.8172 705.857L64.9725 705.711L65.1268 705.565L65.2795 705.418L65.4321 705.27L65.5839 705.121L65.734 704.971L65.8841 704.82L66.0333 704.668L66.1808 704.516L66.3283 704.362L66.475 704.208L66.6199 704.052L66.7648 703.896L66.908 703.738L67.0504 703.581L67.1927 703.422L67.3334 703.261L67.4732 703.101L67.6121 702.94L67.7502 702.777L67.8874 702.614L68.0238 702.449L68.1592 702.284L68.2939 702.118L68.4268 701.952L68.5589 701.784L68.691 701.615L68.8213 701.446L68.9508 701.275L69.0794 701.104L69.2072 700.933L69.3333 700.76L69.4594 700.586L69.5837 700.411L69.7072 700.237L69.8298 700.061L69.9516 699.884L70.0717 699.707L70.1917 699.528L70.3101 699.348L70.4276 699.168L70.5433 698.988L70.6591 698.807L70.7732 698.624L70.8864 698.441L70.9987 698.257L71.1102 698.073L71.22 697.887L71.3289 697.701L71.4369 697.514L71.5441 697.326L71.6496 697.138L71.7542 696.948L71.858 696.759L71.9601 696.568L72.0621 696.376L72.1625 696.184L72.2611 695.992L72.3588 695.798L72.4558 695.603L72.5518 695.409L72.6461 695.213L72.7396 695.016L72.8322 694.819L72.9231 694.621L73.0132 694.423L73.1024 694.224L73.1898 694.024L73.2765 693.823L73.3622 693.622L73.4463 693.42L73.5295 693.218L73.6109 693.014L73.6915 692.811L73.7713 692.606L73.8493 692.4L73.9257 692.194L74.002 691.988L74.0766 691.781L74.1495 691.573L74.2215 691.364L74.2927 691.155L74.3622 690.946L74.4308 690.735L74.4977 690.525L74.5637 690.313L74.628 690.101L74.6915 689.888L74.7532 689.675L74.8141 689.461L74.8733 689.246L74.9316 689.031L74.9882 688.815L75.044 688.599L75.098 688.382L75.1512 688.164L75.2026 687.946L75.2532 687.728L75.3021 687.508L75.3501 687.289L75.3964 687.068L75.441 686.848L75.4848 686.626L75.5276 686.404L75.5679 686.182L75.6082 685.959L75.646 685.735L75.6829 685.511L75.7189 685.286L75.7523 685.061L75.7858 684.836L75.8166 684.61L75.8467 684.383L75.875 684.156L75.9024 683.928L75.928 683.701C73.0963 689.401 64.8911 704.58 54.1587 712.7ZM76.1245 683.303L76.1185 683.483L76.1091 683.714L76.0979 683.944L76.0859 684.175L76.0722 684.404L76.0568 684.634L76.0396 684.863L76.0216 685.092L76.0019 685.321L75.9813 685.549L75.959 685.777L75.935 686.004L75.9101 686.232L75.8835 686.459L75.8552 686.685L75.8252 686.911L75.7943 687.137L75.7626 687.362L75.7292 687.587L75.694 687.812L75.6571 688.036L75.6194 688.26L75.5799 688.483L75.5396 688.706L75.4976 688.929L75.4539 689.151L75.4093 689.373L75.363 689.594L75.3158 689.815L75.2669 690.036L75.2172 690.256L75.1657 690.475L75.1126 690.694L75.0585 690.913L75.0028 691.131L74.9462 691.349L74.8879 691.566L74.8287 691.783L74.7678 692L74.7052 692.216L74.6417 692.431L74.5774 692.646L74.5114 692.86L74.4436 693.074L74.375 693.288L74.3047 693.5L74.2335 693.712L74.1615 693.924L74.0877 694.136L74.0123 694.346L73.936 694.557L73.8588 694.766L73.7799 694.975L73.6993 695.184L73.6178 695.393L73.5355 695.6L73.4514 695.806L73.3665 696.013L73.2799 696.219L73.1924 696.424L73.1032 696.629L73.0132 696.833L72.9214 697.036L72.8288 697.239L72.7353 697.441L72.6401 697.643L72.5441 697.843L72.4472 698.044L72.3486 698.243L72.2482 698.443L72.147 698.641L72.045 698.839L71.9421 699.036L71.8374 699.232L71.7311 699.429L71.6248 699.624L71.5167 699.818L71.4069 700.012L71.2972 700.205L71.1857 700.398L71.0725 700.59L70.9584 700.781L70.8435 700.971L70.7277 701.161L70.6102 701.35L70.4919 701.538L70.3718 701.726L70.2518 701.912L70.13 702.098L70.0065 702.284L69.883 702.469L69.7578 702.652L69.6309 702.836L69.5039 703.018L69.3753 703.2L69.2458 703.381L69.1155 703.561L68.9834 703.74L68.8505 703.919L68.7167 704.097L68.582 704.273L68.4457 704.45L68.3085 704.626L68.1704 704.8L68.0315 704.974L67.8908 705.147L67.7493 705.319L67.607 705.49L67.4637 705.661L67.3197 705.831L67.1739 706L67.0272 706.168L66.8797 706.335L66.7314 706.501L66.5813 706.667L66.4312 706.831L66.2794 706.995L66.1268 707.158L65.9733 707.32L65.8189 707.481L65.6628 707.641L65.5067 707.801L65.3489 707.96L65.1903 708.117L65.0308 708.274L64.8704 708.429L64.7092 708.584L64.5462 708.738L64.3833 708.89L64.2186 709.043L64.0531 709.194L63.8868 709.344L63.7195 709.494L63.5514 709.641L63.3825 709.789L63.2127 709.935L63.042 710.081L62.8697 710.225L62.6973 710.368L62.5232 710.511L62.3491 710.652L62.1733 710.792L61.9966 710.932L61.8191 711.071L61.6416 711.208L61.4624 711.344L61.2823 711.48L61.1013 711.614L60.9195 711.748L60.7368 711.88L60.5533 712.012L60.3689 712.141L60.1837 712.271L59.9976 712.399L59.8106 712.526L59.6228 712.652L59.4342 712.777L59.2446 712.901L59.0543 713.024L58.8639 713.146L58.6718 713.266L58.4788 713.385L58.285 713.504L58.0903 713.621L57.8957 713.737L57.6993 713.852L57.502 713.967L57.3048 714.079L57.1067 714.191L56.9069 714.302L56.707 714.411L56.5064 714.519L56.3048 714.626L56.1024 714.733L55.8992 714.837L55.6951 714.941L55.4901 715.043L55.2852 715.145L55.0785 715.245L54.8718 715.344L54.6643 715.441L54.4559 715.537L54.2466 715.633L54.0365 715.727L53.8256 715.82L53.6146 715.912L53.4028 716.002L53.1901 716.091L52.9765 716.179L52.7621 716.266L52.5469 716.351L52.3316 716.436L52.1155 716.519L51.8986 716.601L51.6807 716.681L51.462 716.76L51.2434 716.838L51.023 716.915L50.8026 716.99L50.5822 717.064L50.36 717.136L50.1379 717.208L49.915 717.278L49.6911 717.346L49.4664 717.414L49.2418 717.48L49.0162 717.545L48.7898 717.608L48.5634 717.671L48.3361 717.731L48.108 717.791L47.879 717.849L47.6501 717.905L47.4202 717.961L47.1895 718.014L46.958 718.067L46.7265 718.119L46.4949 718.168L46.2616 718.217L46.0284 718.264L45.7943 718.309L45.5601 718.353L45.3252 718.396L45.0893 718.437L44.8526 718.477L44.6159 718.515L44.3792 718.552L44.1408 718.588L43.9024 718.622L43.664 718.654L43.4247 718.686L43.1846 718.716L42.9445 718.744L42.7035 718.77L42.4617 718.796L42.2198 718.819L42.1684 718.824L41.978 718.842L41.7344 718.863L41.4917 718.883L41.2473 718.901L41.0029 718.918L40.7585 718.933L40.5132 718.946L40.2671 718.959L40.021 718.969L39.7749 718.979L39.5279 718.985L39.2809 718.991L39.0348 718.996L38.7895 718.999L38.5434 719H38.2981L38.0528 718.997L37.8076 718.994L37.5631 718.99L37.3187 718.983L37.0752 718.975L36.8316 718.965L36.5881 718.954L36.3445 718.942L36.1018 718.927L35.86 718.912L35.6173 718.895L35.3754 718.876L35.1345 718.856L34.8935 718.834L34.6525 718.811L34.4124 718.787L34.1722 718.76L33.933 718.733L33.6937 718.704L33.4544 718.673L33.216 718.641L32.9776 718.607L32.7401 718.573L32.5034 718.536L32.2658 718.498L32.03 718.459L31.7933 718.418L31.5583 718.376L31.3225 718.332L31.0884 718.288L30.8534 718.241L30.6201 718.193L30.3869 718.143L30.1536 718.093L29.9212 718.04L29.6888 717.986L29.4572 717.932L29.2265 717.875L28.9959 717.817L28.766 717.758L28.5362 717.698L28.3072 717.636L28.0782 717.573L27.8501 717.508L27.6229 717.441L27.3956 717.374L27.1692 717.305L26.9436 717.235L26.7181 717.163L26.4934 717.09L26.2687 717.016L26.0449 716.94L25.8219 716.863L25.599 716.785L25.3768 716.706L25.1556 716.625L24.9343 716.542L24.7139 716.458L24.4944 716.374L24.2748 716.287L24.057 716.2L23.8383 716.111L23.6214 716.02L23.4044 715.929L23.1883 715.836L22.973 715.742L22.7586 715.648L22.5442 715.55L22.3307 715.453L22.118 715.354L21.9053 715.253L21.6935 715.152L21.4834 715.049L21.2724 714.944L21.0632 714.839L20.8539 714.732L20.6464 714.624L20.4389 714.515L20.2322 714.405L20.0255 714.293L19.8205 714.181L19.6156 714.066L19.4115 713.951L19.2082 713.835L19.0058 713.717L18.8043 713.598L18.6028 713.479L18.4029 713.356L18.2031 713.234L18.0042 713.111L17.8069 712.986L17.6097 712.86L17.4124 712.733L17.2169 712.605L17.0222 712.475L16.8284 712.344L16.6346 712.212L16.4425 712.079L16.2504 711.945L16.0592 711.81L15.8696 711.674L15.6801 711.536L15.4914 711.397L15.3036 711.257L15.1167 711.117L14.9306 710.975L14.7462 710.832L14.5618 710.687L14.3783 710.542L14.1956 710.396L14.0138 710.248L13.8329 710.099L13.6528 709.949L13.6416 709.94L13.4744 709.797L13.2969 709.645L13.1202 709.491L12.9444 709.337L12.7703 709.181L12.5962 709.024L12.423 708.866L12.2515 708.706L12.08 708.547L11.9102 708.385L11.7412 708.223L11.5723 708.06L11.405 707.896L11.2387 707.73L11.0732 707.564L10.9094 707.396L10.7456 707.228L10.5835 707.059L10.4214 706.889L10.261 706.717L10.1015 706.546L9.94286 706.372L9.78592 706.198L9.62898 706.023L9.47376 705.846L9.31939 705.669L9.16588 705.491L9.01323 705.312L8.8623 705.132L8.71136 704.951L8.56214 704.768L8.41378 704.586L8.26713 704.402L8.12049 704.217L7.97555 704.031L7.83148 703.845L7.68912 703.657L7.54676 703.469L7.40612 703.279L7.26633 703.089L7.12826 702.898L6.99104 702.705L6.85469 702.512L6.71919 702.319L6.58455 702.124L6.45162 701.928L6.32041 701.732L6.1892 701.534L6.05971 701.336L5.93107 701.137L5.80414 700.936L5.67808 700.736L5.55287 700.534L5.42938 700.331L5.30674 700.127L5.18497 699.923L5.06491 699.718L4.9457 699.512L4.82821 699.305L4.71158 699.097L4.59581 698.889L4.48175 698.679L4.36855 698.469L4.25706 698.259L4.14643 698.047L4.03666 697.835L3.9286 697.621L3.8214 697.407L3.71592 697.192L3.6113 696.976L3.50839 696.76L3.40633 696.543L3.306 696.325L3.27255 696.251L3.20823 696.106L3.11218 695.886L3.01699 695.665L2.92351 695.443L2.83089 695.22L2.73999 694.997L2.6508 694.773L2.56247 694.549L2.47585 694.323L2.39009 694.098L2.30519 693.871L2.22286 693.644L2.14139 693.416L2.06078 693.187L1.98188 692.958L1.9047 692.728L1.82837 692.497L1.75376 692.266L1.68001 692.034L1.60797 691.801L1.53765 691.568L1.46819 691.334L1.40044 691.1L1.3344 690.864L1.26923 690.629L1.20577 690.392L1.14402 690.155L1.08313 689.917L1.02396 689.679L0.9665 689.44L0.909899 689.201L0.855014 688.961L0.824998 688.826L0.802701 688.72L0.752961 688.479L0.704936 688.236L0.658626 687.993L0.614032 687.75L0.570295 687.507L0.528273 687.262L0.487967 687.017L0.449375 686.772L0.411641 686.526L0.375623 686.28L0.341319 686.033L0.308731 685.786L0.277 685.538L0.246985 685.29L0.218685 685.041L0.192099 684.792L0.167229 684.542L0.144075 684.292L0.121777 684.042L0.101195 683.791L0.0823283 683.539L0.0651766 683.287L0.0488824 683.035L0.035161 682.782L0.0222972 682.529L0.0120062 682.276L0.00686069 682.139L0.00428793 682.022L0.00171517 681.768L0 681.512V681.258L0.00171517 681.002L0.00514552 680.747L0.00943345 680.492L0.0162941 680.238L0.02487 679.983L0.0343035 679.73L0.0454521 679.477L0.0591735 679.223L0.0737524 678.971L0.089189 678.719L0.107198 678.467L0.126923 678.215L0.147505 677.965L0.169802 677.714L0.193815 677.464L0.219542 677.215L0.246985 676.966L0.275285 676.718L0.305301 676.47L0.337031 676.222L0.370477 675.975L0.405638 675.728L0.441657 675.482L0.445087 675.459L0.482821 675.237L0.524843 674.993L0.569437 674.749L0.614889 674.504L0.662057 674.262L0.710082 674.02L0.759822 673.777L0.811277 673.536L0.864447 673.295L0.919333 673.056L0.975076 672.816L1.03168 672.577L1.09085 672.339L1.15088 672.102L1.21263 671.864L1.27523 671.628L1.33955 671.392L1.40558 671.157L1.47333 670.922L1.54194 670.689L1.6114 670.455L1.68344 670.223L1.75634 669.991L1.83009 669.759L1.90556 669.528L1.98274 669.299L2.06078 669.069L2.14054 668.84L2.22201 668.613L2.30433 668.385L2.38838 668.159L2.45098 667.991L2.47328 667.933L2.56161 667.708L2.65166 667.485L2.74256 667.262L2.83518 667.039L2.92866 666.817L3.02385 666.597L3.1199 666.377L3.21766 666.158L3.31629 665.938L3.41577 665.721L3.51782 665.504L3.61987 665.288L3.72364 665.072L3.82912 664.857L3.93546 664.644L4.04266 664.431L4.15158 664.218L4.26135 664.007L4.37283 663.796L4.48518 663.586L4.59924 663.377L4.71415 663.169L4.82993 662.961L4.94742 662.755L5.06576 662.549L5.18497 662.344L5.30589 662.141L5.42852 661.937L5.55116 661.734L5.67551 661.533L5.80071 661.333L5.92764 661.133L6.05542 660.933L6.18406 660.735L6.31441 660.538L6.44562 660.342L6.57769 660.146L6.71147 659.952L6.84611 659.758L6.98161 659.565L7.11797 659.373L7.25604 659.182L7.39497 658.992L7.53475 658.803L7.67626 658.615L7.81861 658.427L7.96183 658.241L8.10591 658.056L8.25084 657.871L8.39749 657.687L8.54499 657.505L8.69335 657.323L8.84343 657.142L8.99351 656.962L9.1453 656.784L9.29795 656.605L9.45146 656.429L9.60583 656.253L9.76191 656.078L9.91884 655.904L10.0758 655.731L10.2344 655.558L10.3939 655.388L10.5552 655.218L10.7164 655.048L10.8793 654.881L11.0423 654.714L11.2069 654.547L11.3725 654.383L11.5388 654.219L11.7061 654.056L11.8741 653.894L11.8759 653.892L12.0439 653.732L12.2137 653.573L12.3853 653.414L12.5568 653.256L12.73 653.1L12.9041 652.945L13.0791 652.79L13.2549 652.637L13.4307 652.484L13.6082 652.333L13.7866 652.183L13.9658 652.034L14.1459 651.886L14.3268 651.738L14.5086 651.593L14.6913 651.448L14.8748 651.305L15.0592 651.162L15.2445 651.021L15.4306 650.88L15.6175 650.741L15.8045 650.603L15.9931 650.466L16.1827 650.33L16.373 650.196L16.5634 650.062L16.7555 649.929L16.9476 649.798L17.1406 649.668L17.3353 649.539L17.5299 649.411L17.7255 649.284L17.9218 649.159L18.1191 649.034L18.3163 648.911L18.5153 648.789L18.7143 648.669L18.9149 648.549L19.1156 648.431L19.3171 648.313L19.5195 648.197L19.7219 648.083L19.926 647.969L20.1301 647.857L20.3351 647.746L20.5409 647.636L20.7476 647.527L20.9551 647.42L21.1627 647.313L21.3711 647.208L21.5803 647.104L21.7904 647.002L22.0005 646.9L22.2115 646.8L22.4233 646.701L22.636 646.604L22.8495 646.508L23.0631 646.413L23.2775 646.319L23.4919 646.227L23.708 646.136L23.9241 646.046L24.1411 645.957L24.358 645.87L24.5767 645.784L24.7945 645.7L25.0141 645.616L25.2336 645.534L25.454 645.454L25.6753 645.375L25.8965 645.296L26.1187 645.219L26.1658 645.203L26.3408 645.143L26.5637 645.068L26.7867 644.992L27.0105 644.92L27.2344 644.848L27.4591 644.777L27.6846 644.709L27.9101 644.641L28.1366 644.575L28.3638 644.51L28.5911 644.446L28.8192 644.384L29.0473 644.323L29.2763 644.264L29.5061 644.206L29.736 644.149L29.9666 644.094L30.1973 644.04L30.4289 643.988L30.6604 643.937L30.8928 643.887L31.1261 643.839L31.3594 643.792L31.5926 643.747L31.8267 643.703L32.0617 643.66L32.2967 643.619L32.5325 643.579L32.7684 643.541L33.0042 643.504L33.2409 643.469L33.4296 643.442L33.4785 643.435L33.7152 643.399L33.9527 643.366L34.1911 643.334L34.4295 643.303L34.6679 643.273L34.9072 643.246L35.1473 643.219L35.3866 643.194L35.6276 643.171L35.8685 643.148L36.1095 643.128L36.3514 643.109L36.5932 643.091L36.835 643.076L37.0777 643.061L37.3213 643.049L37.5649 643.037L37.8084 643.027L38.0528 643.019L38.2972 643.012L38.5416 643.006L38.7869 643.003L39.0322 643H39.2783L39.5244 643.001L39.7706 643.003L39.8263 643.003H40.0167L40.2628 643.005L40.5089 643.008L40.7542 643.013L40.9986 643.019L41.2439 643.026L41.4875 643.035L41.7319 643.046L41.9754 643.058L42.2181 643.072L42.4608 643.087L42.7035 643.104L42.9454 643.122L43.1863 643.142L43.4273 643.163L43.6683 643.185L43.9084 643.21L44.1485 643.235L44.3878 643.263L44.6271 643.291L44.8655 643.321L45.103 643.352L45.3414 643.386L45.5781 643.42L45.8148 643.456L46.0515 643.493L46.2865 643.532L46.3603 643.544L46.5223 643.571L46.7573 643.61L46.9923 643.652L47.2264 643.694L47.4605 643.738L47.6938 643.783L47.9262 643.83L48.1586 643.878L48.391 643.927L48.6226 643.979L48.8533 644.031L49.0831 644.085L49.3129 644.14L49.5428 644.196L49.7709 644.254L49.9999 644.313L50.2271 644.374L50.4544 644.436L50.6808 644.499L50.9072 644.564L51.1327 644.631L51.3574 644.698L51.5821 644.766L51.8059 644.836L52.0289 644.908L52.2519 644.98L52.474 645.055L52.6953 645.131L52.9165 645.207L53.1369 645.285L53.3565 645.364L53.576 645.445L53.7947 645.527L54.0125 645.61L54.0657 645.631L54.2303 645.694L54.4473 645.778L54.6634 645.864L54.8795 645.951L55.0948 646.039L55.31 646.129L55.5236 646.219L55.7371 646.312L55.9506 646.405L56.1625 646.499L56.3743 646.596L56.5844 646.692L56.7954 646.791L57.0046 646.89L57.213 646.992L57.4214 647.093L57.6289 647.196L57.8356 647.301L58.0414 647.407L58.2473 647.514L58.4514 647.622L58.6555 647.731L58.8587 647.841L59.0611 647.953L59.2635 648.067L59.4642 648.18L59.6649 648.296L59.8638 648.412L60.0628 648.53L60.2609 648.649L60.4581 648.769L60.6554 648.89L60.8509 649.012L61.0456 649.136L61.2402 649.26L61.4332 649.386L61.6262 649.513L61.8183 649.641L62.0095 649.77L62.1999 649.9L62.3894 650.032L62.5781 650.164L62.7659 650.298L62.9528 650.433L63.1389 650.569L63.3242 650.706L63.5086 650.844L63.6929 650.983L63.8756 651.123L64.0574 651.265L64.2384 651.406L64.4193 651.551L64.5985 651.695L64.7769 651.841L64.9545 651.987L65.1311 652.135L65.3078 652.284L65.4827 652.433L65.6568 652.584L65.83 652.736L66.0024 652.889L66.1739 653.043L66.3437 653.198L66.5135 653.354L66.6825 653.511L66.8506 653.669L67.0169 653.828L67.1833 653.988L67.348 654.149L67.5118 654.311L67.6747 654.474L67.8368 654.638L67.998 654.803L68.1584 654.969L68.317 655.136L68.4757 655.304L68.6326 655.473L68.7887 655.643L68.8162 655.673L68.9448 655.813L69.1 655.984L69.2544 656.156L69.4079 656.329L69.5597 656.502L69.7106 656.677L69.8607 656.853L70.0099 657.029L70.1583 657.207L70.3058 657.385L70.4516 657.565L70.5965 657.745L70.7406 657.926L70.8838 658.109L71.0253 658.292L71.1659 658.476L71.3057 658.661L71.4447 658.847L71.5819 659.033L71.7191 659.221L71.8537 659.409L71.9884 659.599L72.1213 659.789L72.2542 659.98L72.3846 660.172L72.5149 660.365L72.6436 660.559L72.7713 660.753L72.8983 660.948L73.0235 661.144L73.1478 661.341L73.2705 661.539L73.3931 661.738L73.5132 661.938L73.6332 662.138L73.7516 662.339L73.8691 662.541L73.9857 662.744L74.1006 662.947L74.2138 663.152L74.327 663.357L74.4385 663.563L74.5483 663.769L74.6572 663.977L74.7652 664.185L74.8716 664.394L74.9771 664.604L75.0817 664.815L75.1846 665.026L75.2858 665.239L75.3861 665.451L75.4856 665.665L75.5834 665.88L75.6803 666.095L75.7755 666.31L75.8698 666.527L75.9624 666.744L76.0542 666.962L76.1442 667.181L76.2334 667.4L76.3209 667.62L76.4075 667.841L76.4924 668.063L76.5765 668.285L76.6588 668.508L76.7403 668.731L76.82 668.956L76.8989 669.181L76.9761 669.406L77.0516 669.632L77.1262 669.859L77.1991 670.087L77.2711 670.316L77.3414 670.544L77.41 670.774L77.4778 671.004L77.5438 671.235L77.609 671.466L77.6725 671.698L77.7342 671.931L77.7951 672.164L77.8543 672.398L77.9126 672.632L77.9683 672.868L78.0232 673.103L78.0772 673.34L78.1295 673.576L78.1801 673.813L78.229 674.051L78.2771 674.29L78.3234 674.529L78.368 674.769L78.4117 675.009L78.4537 675.25L78.494 675.491L78.5326 675.733L78.5704 675.976L78.6064 676.218L78.6407 676.462L78.6741 676.706L78.705 676.95L78.735 677.195L78.7633 677.441L78.7907 677.686L78.8156 677.933L78.8396 678.18L78.8619 678.427L78.8825 678.674L78.9022 678.923L78.9194 679.172L78.9357 679.421L78.9503 679.671L78.9631 679.921L78.9743 680.172L78.9803 680.328L78.9846 680.423L78.9931 680.674L79 680.917L76.7514 680.924C76.9156 681.273 77 681.462 77 681.462C77 681.462 76.6976 682.137 76.1245 683.303ZM72.467 672.784L72.46 672.752L72.4146 672.55L72.3674 672.348L72.3185 672.147L72.2688 671.945L72.2182 671.745L72.1659 671.545L72.1127 671.346L72.0578 671.146L72.0021 670.947L71.9455 670.749L71.8872 670.551L71.828 670.354L71.7671 670.157L71.7054 669.961L71.6428 669.765L71.5784 669.569L71.5133 669.375L71.4464 669.18L71.3786 668.986L71.31 668.793L71.2397 668.599L71.1685 668.407L71.0965 668.215L71.0227 668.023L70.9481 667.833L70.8727 667.642L70.7955 667.452L70.7174 667.263L70.6377 667.074L70.5579 666.886L70.4764 666.698L70.3933 666.51L70.3092 666.324L70.2243 666.138L70.1386 665.952L70.0519 665.767L69.9636 665.583L69.8744 665.399L69.7835 665.216L69.6918 665.033L69.5991 664.851L69.5057 664.67L69.4105 664.489L69.3153 664.309L69.2175 664.129L69.1198 663.95L69.0211 663.771L68.9208 663.594L68.8196 663.416L68.7167 663.24L68.6138 663.064L68.5091 662.889L68.4037 662.714L68.2973 662.54L68.1893 662.367L68.0804 662.194L67.9714 662.022L67.86 661.851L67.7485 661.68L67.6361 661.51L67.5221 661.341L67.4072 661.172L67.2914 661.004L67.1747 660.837L67.0564 660.67L66.938 660.505L66.818 660.339L66.6971 660.175L66.5753 660.012L66.4527 659.849L66.3292 659.687L66.204 659.524L66.0787 659.364L65.9518 659.204L65.824 659.045L65.6954 658.886L65.5659 658.728L65.4579 658.599L65.4347 658.571L65.3026 658.416L65.1697 658.262L65.0351 658.107L64.8996 657.954L64.7632 657.803L64.6269 657.651L64.4888 657.5L64.3499 657.35L64.2101 657.201L64.0694 657.052L63.9271 656.906L63.7847 656.759L63.6415 656.613L63.4974 656.468L63.3516 656.324L63.2058 656.18L63.0592 656.038L62.9108 655.896L62.7625 655.756L62.6124 655.616L62.4623 655.477L62.3114 655.339L62.1587 655.202L62.0061 655.065L61.8517 654.93L61.6973 654.796L61.5421 654.662L61.3852 654.529L61.2282 654.397L61.0704 654.266L60.9109 654.136L60.7514 654.007L60.591 653.878L60.4298 653.751L60.2677 653.625L60.1048 653.5L59.941 653.375L59.7763 653.251L59.6117 653.129L59.4453 653.007L59.2789 652.887L59.1109 652.767L58.9428 652.648L58.7738 652.53L58.6032 652.413L58.4325 652.298L58.261 652.183L58.0895 652.069L57.9162 651.956L57.7421 651.844L57.5681 651.733L57.3931 651.623L57.2173 651.515L57.0406 651.407L56.8631 651.3L56.6847 651.194L56.5064 651.09L56.3263 650.986L56.1462 650.883L55.9652 650.782L55.7843 650.681L55.6016 650.581L55.4181 650.483L55.2346 650.385L55.0502 650.289L54.8649 650.194L54.6797 650.099L54.4928 650.006L54.3058 649.914L54.118 649.824L53.9302 649.733L53.7407 649.644L53.5511 649.557L53.3607 649.47L53.1695 649.385L52.9783 649.301L52.7853 649.218L52.6404 649.156L52.5923 649.136L52.5259 649.108C61.0589 654.82 68.1514 665.299 72.467 672.784ZM58.988 681.748L58.9833 681.782C58.9944 681.516 59 681.248 59 680.98C59 680.799 58.9975 680.618 58.9924 680.438L59.1178 680.437L59.1092 680.558L59.1006 680.678L59.0911 680.798L59.0808 680.918L59.0696 681.038L59.0585 681.157L59.0456 681.276L59.0327 681.394L59.0181 681.513L59.0035 681.631L58.988 681.748ZM59.1247 680.558L59.1178 680.437L62 680.429L61.9931 680.299L61.9854 680.161L61.9828 680.109L61.9776 680.022L61.9682 679.884L61.9587 679.747L61.9484 679.609L61.9364 679.472L61.9244 679.336L61.9115 679.199L61.8969 679.062L61.8822 678.926L61.8668 678.791L61.8504 678.656L61.8324 678.52L61.8143 678.386L61.7954 678.251L61.7756 678.117L61.755 677.983L61.7327 677.849L61.7103 677.717L61.6871 677.583L61.663 677.451L61.639 677.318L61.6132 677.186L61.5865 677.054L61.559 676.923L61.5315 676.792L61.5023 676.662L61.4722 676.531L61.4421 676.401L61.4112 676.272L61.3785 676.142L61.3458 676.013L61.3123 675.884L61.2779 675.757L61.2427 675.628L61.2075 675.5L61.1705 675.374L61.1327 675.247L61.0948 675.121L61.0562 674.995L61.0158 674.869L60.9754 674.744L60.935 674.618L60.8928 674.494L60.8499 674.37L60.8069 674.246L60.7622 674.122L60.7175 674L60.6719 673.877L60.6255 673.754L60.5782 673.633L60.531 673.512L60.482 673.391L60.433 673.27L60.3831 673.15L60.3324 673.03L60.2817 672.911L60.2292 672.792L60.1768 672.673L60.1235 672.555L60.0694 672.437L60.0143 672.32L59.9593 672.203L59.9026 672.087L59.8459 671.971L59.7883 671.856L59.7307 671.74L59.6714 671.626L59.612 671.512L59.5519 671.398L59.4917 671.285L59.4298 671.171L59.3679 671.059L59.3052 670.947L59.2416 670.836L59.178 670.725L59.1126 670.615L59.0473 670.504L58.982 670.395L58.9149 670.285L58.8479 670.177L58.78 670.069L58.7121 669.961L58.6424 669.854L58.5728 669.747L58.5032 669.641L58.4318 669.535L58.3605 669.43L58.2883 669.325L58.2161 669.22L58.143 669.116L58.0691 669.013L57.9943 668.91L57.9195 668.808L57.8439 668.706L57.7674 668.605L57.6909 668.504L57.6135 668.404L57.5353 668.303L57.4571 668.204L57.378 668.106L57.298 668.007L57.2181 667.909L57.1373 667.812L57.0565 667.716L56.974 667.62L56.8923 667.523L56.8089 667.428L56.7255 667.333L56.6413 667.24L56.5571 667.146L56.472 667.053L56.3869 666.961L56.3 666.869L56.2141 666.778L56.1419 666.703L56.1264 666.686L56.0404 666.595L55.9528 666.504L55.8651 666.415L55.7765 666.326L55.688 666.236L55.5986 666.148L55.5084 666.06L55.4181 665.973L55.3278 665.886L55.2359 665.799L55.1439 665.714L55.0519 665.629L54.9591 665.545L54.8654 665.461L54.7717 665.377L54.678 665.294L54.5826 665.212L54.4872 665.131L54.3917 665.049L54.2955 664.969L54.1992 664.889L54.1021 664.81L54.0041 664.731L53.9061 664.653L53.8072 664.575L53.7084 664.499L53.6087 664.422L53.5089 664.346L53.4084 664.271L53.3078 664.196L53.2064 664.122L53.1049 664.049L53.0026 663.977L52.9003 663.904L52.7972 663.833L52.694 663.762L52.59 663.691L52.486 663.622L52.3812 663.553L52.2763 663.485L52.1706 663.416L52.0648 663.349L51.9582 663.283L51.8516 663.216L51.7442 663.152L51.6367 663.087L51.5284 663.022L51.4201 662.959L51.3118 662.896L51.2026 662.834L51.0926 662.773L50.9826 662.712L50.8726 662.652L50.7617 662.592L50.6508 662.534L50.539 662.476L50.4273 662.418L50.3155 662.361L50.2029 662.305L50.0895 662.249L49.9769 662.195L49.8634 662.14L49.7491 662.087L49.6348 662.034L49.5204 661.982L49.4052 661.93L49.2901 661.88L49.174 661.83L49.058 661.78L48.9419 661.731L48.825 661.683L48.7081 661.635L48.5903 661.589L48.4726 661.544L48.3548 661.497L48.2362 661.453L48.1176 661.41L48.0282 661.377L47.9989 661.366L47.8803 661.322L47.7608 661.279L47.6422 661.236L47.5219 661.194L47.4024 661.154L47.282 661.114L47.1617 661.074L47.0405 661.035L46.9193 660.997L46.7981 660.959L46.676 660.923L46.554 660.887L46.4319 660.851L46.309 660.817L46.1861 660.783L46.0623 660.75L45.9394 660.718L45.8156 660.686L45.6909 660.656L45.5672 660.626L45.4425 660.597L45.317 660.568L45.1924 660.54L45.0669 660.513L44.9414 660.487L44.815 660.461L44.6895 660.437L44.5631 660.412L44.4359 660.389L44.3096 660.367L44.1824 660.345L44.0551 660.324L43.9271 660.304L43.8394 660.29L43.7998 660.284L43.6718 660.263L43.5437 660.243L43.4156 660.225L43.2867 660.206L43.1586 660.189L43.0296 660.172L42.8998 660.156L42.7709 660.141L42.6411 660.127L42.5113 660.113L42.3815 660.1L42.2508 660.089L42.1202 660.077L41.9895 660.067L41.8589 660.058L41.7274 660.049L41.5967 660.041L41.4643 660.034L41.3328 660.027L41.2013 660.022L41.0689 660.018L40.9365 660.014L40.8041 660.011L40.6709 660.008L40.5385 660.008L40.4053 660.007L40.3021 660.008L40.2721 660.007L40.1388 660.003L40.0056 660.002L39.8732 660H39.74H39.6076L39.4744 660.002L39.342 660.003L39.2105 660.007L39.0781 660.01L38.9466 660.015L38.8142 660.02L38.6827 660.026L38.5512 660.034L38.4205 660.042L38.289 660.05L38.1583 660.06L38.0277 660.07L37.897 660.081L37.7672 660.093L37.6366 660.106L37.5068 660.119L37.377 660.134L37.248 660.149L37.1182 660.165L36.9893 660.181L36.8603 660.199L36.8345 660.203L36.7314 660.215L36.6025 660.232L36.4744 660.249L36.3454 660.266L36.2174 660.285L36.0893 660.304L35.9612 660.324L35.8331 660.346L35.7059 660.367L35.5787 660.39L35.4515 660.413L35.3242 660.438L35.1979 660.462L35.0715 660.488L34.9452 660.514L34.8188 660.541L34.6933 660.57L34.5678 660.599L34.4423 660.627L34.3168 660.658L34.1922 660.689L34.0675 660.721L33.9437 660.753L33.8191 660.787L33.6953 660.821L33.5724 660.856L33.4486 660.891L33.3257 660.927L33.2028 660.964L33.0807 661.001L32.9586 661.04L32.8624 661.071L32.8366 661.079L32.7137 661.117L32.5925 661.156L32.4704 661.196L32.3492 661.236L32.228 661.278L32.1068 661.32L31.9864 661.362L31.8661 661.406L31.7458 661.45L31.6263 661.495L31.5068 661.541L31.3873 661.587L31.2687 661.634L31.1501 661.681L31.0314 661.73L30.9137 661.779L30.7959 661.83L30.679 661.88L30.5621 661.931L30.4452 661.983L30.3291 662.036L30.2131 662.089L30.0971 662.143L29.9819 662.198L29.8667 662.254L29.7515 662.31L29.6372 662.367L29.5237 662.424L29.4102 662.483L29.2968 662.541L29.1833 662.601L29.0707 662.661L28.959 662.722L28.8472 662.784L28.7355 662.846L28.6246 662.909L28.5137 662.972L28.4037 663.037L28.2936 663.101L28.1836 663.167L28.0744 663.233L27.9661 663.301L27.857 663.368L27.7495 663.436L27.6412 663.505L27.5346 663.575L27.4272 663.645L27.3214 663.716L27.2148 663.788L27.1091 663.859L27.0042 663.932L26.8994 664.006L26.7954 664.08L26.6913 664.155L26.5873 664.229L26.485 664.305L26.3819 664.382L26.2796 664.459L26.1782 664.537L26.0767 664.615L25.9762 664.694L25.8756 664.774L25.7759 664.854L25.6762 664.935L25.5773 665.017L25.4785 665.099L25.3805 665.182L25.2825 665.266L25.1853 665.349L25.0891 665.433L24.9928 665.518L24.8974 665.604L24.8965 665.604L24.802 665.691L24.7074 665.778L24.6129 665.866L24.5192 665.954L24.4263 666.043L24.3335 666.132L24.2415 666.222L24.1495 666.313L24.0584 666.404L23.9682 666.496L23.8779 666.589L23.7885 666.681L23.6991 666.774L23.6106 666.869L23.5229 666.963L23.4352 667.059L23.3484 667.154L23.2624 667.25L23.1765 667.347L23.0905 667.445L23.0063 667.543L22.922 667.641L22.8386 667.74L22.7553 667.84L22.6727 667.94L22.5911 668.041L22.5094 668.142L22.4286 668.244L22.3478 668.346L22.2687 668.449L22.1897 668.553L22.1106 668.656L22.0332 668.76L21.9558 668.866L21.8785 668.971L21.8028 669.077L21.7272 669.183L21.6524 669.291L21.5776 669.399L21.5037 669.507L21.4306 669.615L21.3584 669.724L21.2862 669.834L21.2149 669.945L21.1444 670.055L21.0748 670.166L21.0051 670.277L20.9364 670.39L20.8685 670.502L20.8006 670.615L20.7344 670.729L20.6682 670.844L20.602 670.959L20.5375 671.073L20.473 671.189L20.4094 671.305L20.3467 671.422L20.2848 671.538L20.2229 671.656L20.1619 671.774L20.1017 671.892L20.0424 672.012L19.9839 672.131L19.9255 672.251L19.8679 672.371L19.8112 672.492L19.7553 672.613L19.7003 672.734L19.6453 672.857L19.5911 672.98L19.5387 673.102L19.4854 673.226L19.4725 673.258L19.4355 673.35L19.3865 673.475L19.3384 673.601L19.2902 673.726L19.2438 673.853L19.1974 673.979L19.1527 674.107L19.108 674.234L19.0642 674.362L19.0212 674.49L18.9791 674.618L18.937 674.748L18.8966 674.877L18.857 675.007L18.8175 675.137L18.7788 675.267L18.741 675.398L18.7049 675.529L18.6688 675.661L18.6335 675.793L18.5991 675.926L18.5656 676.059L18.5321 676.192L18.5003 676.325L18.4693 676.459L18.4384 676.593L18.4092 676.727L18.3808 676.863L18.3524 676.997L18.3249 677.133L18.2991 677.269L18.2759 677.392L18.2742 677.405L18.2527 677.542L18.2321 677.679L18.2123 677.817L18.1934 677.954L18.1754 678.092L18.1582 678.231L18.1418 678.37L18.1264 678.508L18.1117 678.647L18.098 678.787L18.086 678.926L18.0739 679.066L18.0627 679.206L18.0524 679.346L18.043 679.486L18.0352 679.628L18.0275 679.768L18.0206 679.91L18.0155 680.052L18.0103 680.193L18.006 680.335L18.0034 680.477L18.0017 680.62L18 680.761V680.903L18.0009 681.044V681.11L18.0043 681.187L18.012 681.327L18.0198 681.468L18.0284 681.609L18.0378 681.749L18.049 681.89L18.0602 682.03L18.0722 682.17L18.086 682.31L18.0997 682.448L18.1143 682.587L18.1307 682.726L18.147 682.865L18.165 683.003L18.1831 683.141L18.2029 683.278L18.2226 683.416L18.2433 683.553L18.2656 683.69L18.288 683.827L18.312 683.963L18.3361 684.099L18.361 684.234L18.3877 684.37L18.4143 684.505L18.4418 684.64L18.4702 684.774L18.4831 684.833L18.5011 684.908L18.5338 685.042L18.5673 685.174L18.6017 685.307L18.637 685.439L18.6722 685.571L18.7092 685.703L18.747 685.834L18.7848 685.964L18.8244 686.095L18.8639 686.225L18.9043 686.355L18.9456 686.485L18.9885 686.613L19.0307 686.742L19.0745 686.87L19.1192 686.998L19.1647 687.125L19.2103 687.252L19.2567 687.378L19.3049 687.505L19.353 687.63L19.402 687.756L19.4519 687.881L19.5017 688.006L19.5533 688.13L19.6049 688.254L19.6573 688.377L19.7106 688.5L19.7647 688.622L19.8198 688.744L19.8756 688.866L19.9126 688.946L19.9324 688.987L19.9908 689.107L20.0501 689.227L20.1103 689.345L20.1713 689.464L20.2332 689.582L20.2951 689.7L20.3579 689.817L20.4215 689.933L20.4859 690.05L20.5504 690.166L20.6166 690.281L20.6828 690.396L20.749 690.51L20.8169 690.624L20.8848 690.737L20.9536 690.85L21.0232 690.963L21.0937 691.074L21.1642 691.186L21.2355 691.296L21.3077 691.407L21.3799 691.517L21.453 691.626L21.5269 691.735L21.6017 691.843L21.6765 691.951L21.753 692.058L21.8286 692.165L21.906 692.271L21.9834 692.377L22.0616 692.482L22.1398 692.587L22.2197 692.691L22.2997 692.795L22.3796 692.898L22.4613 693L22.5429 693.102L22.6246 693.203L22.708 693.305L22.7914 693.405L22.8748 693.505L22.9599 693.604L23.045 693.703L23.1301 693.801L23.216 693.899L23.3028 693.996L23.3905 694.092L23.4782 694.188L23.5667 694.284L23.6553 694.378L23.7447 694.473L23.8349 694.566L23.9252 694.659L24.0163 694.752L24.1083 694.844L24.2002 694.936L24.2922 695.026L24.3859 695.116L24.4796 695.207L24.5733 695.295L24.6679 695.384L24.7633 695.471L24.8587 695.559L24.955 695.646L25.0512 695.732L25.1484 695.817L25.2464 695.902L25.3444 695.986L25.4424 696.071L25.5421 696.153L25.6409 696.236L25.7415 696.318L25.8352 696.394L25.8421 696.399L25.9435 696.479L26.0458 696.559L26.1481 696.637L26.2512 696.714L26.3544 696.792L26.4584 696.868L26.5624 696.945L26.6673 697.02L26.773 697.095L26.8779 697.169L26.9845 697.243L27.0911 697.315L27.1976 697.388L27.3051 697.459L27.4125 697.531L27.5209 697.601L27.6292 697.67L27.7383 697.739L27.8475 697.807L27.9575 697.876L28.0676 697.942L28.1776 698.008L28.2893 698.074L28.4002 698.139L28.512 698.203L28.6237 698.267L28.7363 698.33L28.8489 698.392L28.9624 698.454L29.0759 698.515L29.1902 698.575L29.3045 698.635L29.4188 698.694L29.534 698.752L29.6492 698.809L29.7653 698.866L29.8813 698.922L29.9973 698.977L30.1142 699.032L30.2312 699.086L30.3489 699.139L30.4667 699.192L30.5844 699.244L30.7031 699.295L30.8217 699.345L30.9403 699.395L31.0598 699.444L31.1793 699.492L31.2996 699.54L31.42 699.587L31.5403 699.633L31.6615 699.678L31.7827 699.723L31.9039 699.767L32.026 699.81L32.148 699.852L32.2701 699.894L32.393 699.935L32.516 699.976L32.6389 700.015L32.7627 700.054L32.8864 700.092L33.0102 700.129L33.134 700.166L33.2586 700.201L33.3833 700.236L33.5088 700.27L33.6334 700.304L33.7589 700.337L33.8853 700.369L34.0108 700.4L34.1371 700.43L34.2635 700.46L34.3907 700.489L34.5171 700.517L34.6443 700.545L34.7715 700.571L34.8996 700.596L35.0268 700.622L35.1549 700.646L35.2838 700.67L35.4119 700.692L35.5409 700.714L35.6689 700.735L35.7979 700.756L35.9277 700.775L36.0566 700.794L36.1864 700.812L36.3162 700.829L36.446 700.845L36.5758 700.86L36.7065 700.875L36.8371 700.889L36.9678 700.902L37.0984 700.914L37.2291 700.926L37.3606 700.936L37.4913 700.946L37.6228 700.955L37.7543 700.963L37.8858 700.971L38.0173 700.977L38.1497 700.983L38.2821 700.988L38.4136 700.992L38.546 700.995L38.6784 700.997L38.8116 700.999L38.944 701H39.0764L39.2096 700.999L39.3428 700.997L39.4752 700.995L39.6085 700.991L39.7417 700.987L39.8758 700.982L40.009 700.976L40.1423 700.969L40.2764 700.961L40.4096 700.952L40.5428 700.943L40.6761 700.934L40.8084 700.923L40.9408 700.911L41.0732 700.898L41.2047 700.884L41.3362 700.87L41.4669 700.855L41.57 700.843L41.5984 700.839L41.7282 700.823L41.8589 700.806L41.9887 700.788L42.1185 700.769L42.2474 700.751L42.3772 700.73L42.5053 700.709L42.6342 700.688L42.7623 700.665L42.8895 700.642L43.0167 700.618L43.144 700.593L43.2703 700.568L43.3967 700.541L43.523 700.514L43.6485 700.487L43.774 700.458L43.8987 700.429L44.0233 700.398L44.148 700.367L44.2718 700.336L44.3955 700.304L44.5185 700.271L44.6414 700.237L44.7643 700.203L44.8864 700.167L45.0076 700.132L45.1296 700.095L45.25 700.058L45.3712 700.02L45.4907 699.982L45.611 699.942L45.7305 699.902L45.8491 699.861L45.9677 699.82L46.0863 699.777L46.2041 699.735L46.3219 699.691L46.4388 699.647L46.5557 699.602L46.6717 699.557L46.7878 699.511L46.903 699.464L47.0182 699.417L47.1333 699.368L47.2477 699.319L47.3611 699.27L47.4746 699.22L47.5872 699.169L47.6998 699.118L47.8124 699.066L47.9242 699.013L48.035 698.96L48.1459 698.906L48.2568 698.851L48.3669 698.796L48.476 698.741L48.5852 698.684L48.6935 698.627L48.8018 698.569L48.9101 698.511L49.0176 698.452L49.1242 698.393L49.2307 698.333L49.3365 698.272L49.4422 698.211L49.5471 698.149L49.6519 698.087L49.756 698.024L49.86 697.96L49.9631 697.896L50.0654 697.831L50.1677 697.766L50.27 697.7L50.3706 697.634L50.472 697.567L50.5726 697.499L50.6723 697.431L50.7711 697.362L50.8708 697.293L50.9688 697.223L51.0668 697.154L51.164 697.082L51.2611 697.011L51.3574 696.939L51.4537 696.867L51.5491 696.794L51.6445 696.72L51.739 696.646L51.8327 696.572L51.9264 696.497L52.0193 696.421L52.1112 696.346L52.2032 696.269L52.2952 696.192L52.3863 696.114L52.4766 696.036L52.566 695.957L52.6554 695.878L52.7448 695.799L52.8324 695.719L52.9201 695.638L53.0078 695.557L53.0946 695.476L53.1806 695.394L53.2665 695.311L53.3516 695.229L53.4359 695.145L53.5201 695.061L53.6035 694.977L53.6869 694.892L53.7694 694.807L53.8511 694.721L53.9319 694.635L54.0127 694.549L54.0935 694.462L54.1725 694.375L54.2516 694.286L54.3307 694.199L54.4089 694.109L54.4863 694.021L54.5628 693.93L54.6393 693.841L54.7149 693.75L54.7897 693.66L54.8645 693.569L54.9384 693.477L55.0124 693.385L55.0846 693.292L55.1568 693.199L55.229 693.105L55.3003 693.012L55.3708 692.918L55.4404 692.824L55.5101 692.728L55.5788 692.633L55.6467 692.538L55.7147 692.441L55.7808 692.345L55.8479 692.248L55.9132 692.151L55.9785 692.054L56.043 691.956L56.1075 691.857L56.1702 691.759L56.233 691.66L56.2957 691.561L56.3568 691.461L56.4178 691.361L56.478 691.261L56.5381 691.16L56.5966 691.059L56.655 690.958L56.7126 690.856L56.7702 690.754L56.827 690.651L56.8828 690.549L56.9379 690.446L56.9929 690.342L57.047 690.239L57.1003 690.134L57.1528 690.03L57.2052 689.926L57.2559 689.821L57.3075 689.715L57.3573 689.61L57.4063 689.504L57.4553 689.398L57.5035 689.291L57.5516 689.185L57.598 689.078L57.6444 688.97L57.69 688.863L57.7347 688.755L57.7794 688.647L57.8232 688.539L57.8662 688.43L57.9083 688.321L57.9496 688.212L57.9909 688.102L58.0304 687.992L58.0699 687.882L58.1095 687.773L58.1473 687.662L58.1851 687.551L58.2221 687.441L58.2582 687.329L58.2934 687.218L58.3278 687.106L58.3622 686.994L58.3957 686.882L58.4284 686.77L58.4602 686.656L58.492 686.544L58.5221 686.431L58.5522 686.318L58.5814 686.204L58.6098 686.09L58.6381 685.976L58.6648 685.862L58.6914 685.748L58.7172 685.634L58.7421 685.519L58.7662 685.404L58.7894 685.289L58.8126 685.173L58.835 685.059L58.8556 684.943L58.8771 684.827L58.8969 684.71L58.9158 684.595L58.9347 684.478L58.9519 684.361L58.9691 684.245L58.9854 684.128L59.0009 684.01L59.0155 683.894L59.0301 683.776L59.043 683.659L59.0559 683.541L59.0679 683.423L59.0782 683.306L59.0886 683.187L59.0989 683.069L59.1075 682.951L59.1152 682.832L59.1229 682.714L59.1298 682.595L59.135 682.476L59.1401 682.357L59.1444 682.238L59.1487 682.118L59.1513 681.999L59.153 681.88L59.1547 681.76V681.64V681.52L59.1539 681.4L59.1522 681.28L59.1496 681.16L59.1461 681.04L59.1419 680.92L59.1367 680.799L59.1315 680.679L59.1247 680.558ZM64.9818 190.943C64.9939 191.284 65 191.627 65 191.971L64.9818 190.943ZM65 191.971C65 207.424 52.6774 219.983 37.4997 220L65 191.971ZM37.4997 220C37.283 220 37.067 219.998 36.8515 219.993L37.4997 220ZM36.8515 219.993L36.8336 219.993L36.8515 219.993ZM36.8336 219.993L36.6467 219.997L36.8336 219.993ZM36.6467 219.997L36.4604 219.999L36.6467 219.997ZM36.4604 219.999L36.2734 220L36.4604 219.999ZM36.2734 220H36.0872H36.2734ZM36.0872 220L35.9009 219.998L36.0872 220ZM35.9009 219.998L35.7146 219.995L35.9009 219.998ZM35.7146 219.995L35.529 219.992L35.7146 219.995ZM35.529 219.992L35.3433 219.987L35.529 219.992ZM35.3433 219.987L35.1584 219.981L35.3433 219.987ZM35.1584 219.981L34.9734 219.973L35.1584 219.981ZM34.9734 219.973L34.7884 219.965L34.9734 219.973ZM34.7884 219.965L34.6034 219.956L34.7884 219.965ZM34.6034 219.956L34.4191 219.945L34.6034 219.956ZM34.4191 219.945L34.2354 219.933L34.4191 219.945ZM34.2354 219.933L34.0511 219.92L34.2354 219.933ZM34.0511 219.92L33.8674 219.906L34.0511 219.92ZM33.8674 219.906L33.6844 219.89L33.8674 219.906ZM33.6844 219.89L33.5014 219.874L33.6844 219.89ZM33.5014 219.874L33.3184 219.856L33.5014 219.874ZM33.3184 219.856L33.136 219.837L33.3184 219.856ZM33.136 219.837L32.9536 219.817L33.136 219.837ZM32.9536 219.817L32.7719 219.796L32.9536 219.817ZM32.7719 219.796L32.5902 219.774L32.7719 219.796ZM32.5902 219.774L32.4084 219.751L32.5902 219.774ZM32.4084 219.751L32.2274 219.726L32.4084 219.751ZM32.2274 219.726L32.0463 219.7L32.2274 219.726ZM32.0463 219.7L31.8659 219.674L32.0463 219.7ZM31.8659 219.674L31.6861 219.646L31.8659 219.674ZM31.6861 219.646L31.5057 219.617L31.6861 219.646ZM31.5057 219.617L31.3266 219.587L31.5057 219.617ZM31.3266 219.587L31.1468 219.556L31.3266 219.587ZM31.1468 219.556L30.9683 219.524L31.1468 219.556ZM30.9683 219.524L30.7892 219.49L30.9683 219.524ZM30.7892 219.49L30.6114 219.456L30.7892 219.49ZM30.6114 219.456L30.433 219.42L30.6114 219.456ZM30.433 219.42L30.2558 219.384L30.433 219.42ZM30.2558 219.384L30.0786 219.346L30.2558 219.384ZM30.0786 219.346L29.9015 219.308L30.0786 219.346ZM29.9015 219.308L29.725 219.267L29.9015 219.308ZM29.725 219.267L29.5484 219.226L29.725 219.267ZM29.5484 219.226L29.3726 219.185L29.5484 219.226ZM29.3726 219.185L29.1974 219.142L29.3726 219.185ZM29.1974 219.142L29.0222 219.097L29.1974 219.142ZM29.0222 219.097L28.8476 219.053L29.0222 219.097ZM28.8476 219.053L28.6731 219.006L28.8476 219.053ZM28.6731 219.006L28.4991 218.959L28.6731 219.006ZM28.4991 218.959L28.3252 218.911L28.4991 218.959ZM28.3252 218.911L28.152 218.861L28.3252 218.911ZM28.152 218.861L27.9794 218.81L28.152 218.861ZM27.9794 218.81L27.8068 218.759L27.9794 218.81ZM27.8068 218.759L27.6348 218.706L27.8068 218.759ZM27.6348 218.706L27.4635 218.653L27.6348 218.706ZM27.4635 218.653L27.2922 218.598L27.4635 218.653ZM27.2922 218.598L27.1216 218.543L27.2922 218.598ZM27.1216 218.543L26.9509 218.486L27.1216 218.543ZM26.9509 218.486L26.7809 218.428L26.9509 218.486ZM26.7809 218.428L26.6116 218.369L26.7809 218.428ZM26.6116 218.369L26.4422 218.31L26.6116 218.369ZM26.4422 218.31L26.2735 218.249L26.4422 218.31ZM26.2735 218.249L26.1055 218.187L26.2735 218.249ZM26.1055 218.187L25.9375 218.124L26.1055 218.187ZM25.9375 218.124L25.7701 218.06L25.9375 218.124ZM25.7701 218.06L25.6033 217.996L25.7701 218.06ZM25.6033 217.996L25.4366 217.93L25.6033 217.996ZM25.4366 217.93L25.2711 217.863L25.4366 217.93ZM25.2711 217.863L25.1051 217.795L25.2711 217.863ZM25.1051 217.795L24.9403 217.726L25.1051 217.795ZM24.9403 217.726L24.7755 217.656L24.9403 217.726ZM24.7755 217.656L24.6114 217.585L24.7755 217.656ZM24.6114 217.585L24.4479 217.514L24.6114 217.585ZM24.4479 217.514L24.285 217.442L24.4479 217.514ZM24.285 217.442L24.1222 217.367L24.285 217.442ZM24.1222 217.367L23.96 217.293L24.1222 217.367ZM23.96 217.293L23.7985 217.217L23.96 217.293ZM23.7985 217.217L23.637 217.141L23.7985 217.217ZM23.637 217.141L23.4761 217.063L23.637 217.141ZM23.4761 217.063L23.3165 216.984L23.4761 217.063ZM37.5042 175.001L37.4049 175H37.305H37.2057L37.1058 175.001L37.0065 175.003L36.9078 175.005L36.8086 175.008L36.7099 175.012L36.6106 175.015L36.512 175.02L36.4134 175.026L36.3154 175.032L36.2167 175.038L36.1187 175.045L36.0207 175.053L35.9228 175.061L35.8254 175.07L35.7274 175.08L35.6301 175.09L35.5327 175.101L35.436 175.113L35.3387 175.125L35.242 175.137L35.1453 175.151L35.1259 175.153L35.0485 175.163L34.9518 175.175L34.8558 175.188L34.7591 175.201L34.663 175.216L34.567 175.23L34.4709 175.245L34.3748 175.261L34.2794 175.277L34.184 175.295L34.0886 175.312L33.9932 175.331L33.8984 175.35L33.8036 175.369L33.7089 175.389L33.6141 175.409L33.52 175.431L33.4258 175.453L33.3317 175.474L33.2376 175.498L33.1441 175.521L33.0506 175.545L32.9578 175.57L32.8643 175.595L32.7715 175.621L32.6793 175.647L32.5865 175.673L32.4943 175.701L32.4021 175.729L32.3105 175.757L32.219 175.787L32.1468 175.81L32.1274 175.816L32.0352 175.845L31.9443 175.874L31.8528 175.904L31.7619 175.935L31.671 175.966L31.5801 175.998L31.4898 176.03L31.3996 176.063L31.3093 176.096L31.2197 176.13L31.1301 176.165L31.0405 176.2L30.9515 176.235L30.8625 176.271L30.7736 176.308L30.6853 176.345L30.5969 176.383L30.5093 176.421L30.4216 176.46L30.3339 176.499L30.2469 176.539L30.1598 176.58L30.0728 176.62L29.9864 176.662L29.9 176.704L29.8136 176.746L29.7279 176.789L29.6428 176.833L29.5577 176.877L29.4726 176.921L29.3875 176.967L29.303 177.012L29.2192 177.058L29.1354 177.105L29.0516 177.152L28.9684 177.2L28.8853 177.247L28.8027 177.296L28.7202 177.345L28.6377 177.395L28.5558 177.445L28.4746 177.496L28.3927 177.546L28.3121 177.598L28.2309 177.65L28.151 177.703L28.0704 177.756L27.9911 177.81L27.9111 177.864L27.8318 177.918L27.7532 177.973L27.6745 178.029L27.5965 178.085L27.5185 178.141L27.4405 178.198L27.3638 178.255L27.2864 178.313L27.2097 178.372L27.1336 178.43L27.0576 178.49L26.9821 178.549L26.9067 178.61L26.8319 178.67L26.7571 178.732L26.683 178.793L26.6088 178.855L26.5354 178.918L26.4619 178.981L26.389 179.044L26.3168 179.108L26.2446 179.172L26.173 179.237L26.1724 179.237L26.1015 179.303L26.0306 179.369L25.9596 179.435L25.8894 179.502L25.8197 179.569L25.7501 179.637L25.6811 179.705L25.6121 179.773L25.5438 179.842L25.4761 179.911L25.4084 179.982L25.3414 180.052L25.2743 180.122L25.2079 180.193L25.1422 180.265L25.0764 180.337L25.0113 180.409L24.9468 180.482L24.8824 180.555L24.8179 180.629L24.7547 180.703L24.6915 180.777L24.629 180.853L24.5665 180.928L24.5046 181.003L24.4433 181.08L24.3821 181.156L24.3215 181.233L24.2609 181.31L24.2016 181.388L24.1422 181.467L24.0829 181.545L24.0249 181.624L23.9669 181.704L23.9089 181.783L23.8521 181.863L23.7954 181.944L23.7393 182.025L23.6832 182.106L23.6278 182.188L23.573 182.27L23.5188 182.352L23.4647 182.435L23.4112 182.519L23.3583 182.603L23.3061 182.686L23.2539 182.771L23.2023 182.856L23.1513 182.941L23.1004 183.026L23.0508 183.113L23.0011 183.199L22.9515 183.286L22.9031 183.373L22.8548 183.46L22.8071 183.548L22.76 183.636L22.7136 183.724L22.6672 183.813L22.6214 183.902L22.5763 183.992L22.5318 184.082L22.488 184.172L22.4441 184.263L22.4009 184.354L22.3584 184.445L22.3165 184.536L22.2752 184.628L22.2339 184.721L22.1933 184.814L22.154 184.907L22.114 185L22.1044 185.024L22.0766 185.094L22.0399 185.189L22.0038 185.284L21.9677 185.378L21.9329 185.474L21.8981 185.57L21.8645 185.666L21.831 185.762L21.7981 185.859L21.7659 185.956L21.7343 186.053L21.7027 186.151L21.6724 186.249L21.6428 186.347L21.6131 186.445L21.5841 186.543L21.5557 186.643L21.5287 186.742L21.5016 186.842L21.4751 186.941L21.4494 187.042L21.4242 187.142L21.3991 187.243L21.3752 187.344L21.352 187.445L21.3288 187.546L21.3069 187.647L21.2856 187.75L21.2643 187.851L21.2437 187.954L21.2244 188.057L21.2069 188.15L21.2057 188.16L21.1895 188.263L21.1741 188.367L21.1592 188.471L21.1451 188.575L21.1315 188.679L21.1186 188.784L21.1064 188.889L21.0948 188.994L21.0838 189.099L21.0735 189.205L21.0645 189.31L21.0554 189.416L21.0471 189.521L21.0393 189.627L21.0322 189.734L21.0264 189.841L21.0206 189.947L21.0155 190.054L21.0116 190.161L21.0077 190.268L21.0045 190.375L21.0026 190.483L21.0013 190.59L21 190.697V190.805L21.0006 190.912V190.961L21.0032 191.019L21.009 191.125L21.0148 191.232L21.0213 191.338L21.0284 191.445L21.0367 191.551L21.0451 191.657L21.0542 191.763L21.0645 191.868L21.0748 191.973L21.0857 192.078L21.098 192.183L21.1102 192.288L21.1238 192.392L21.1373 192.497L21.1521 192.601L21.167 192.705L21.1824 192.809L21.1992 192.912L21.216 193.015L21.234 193.118L21.2521 193.221L21.2708 193.324L21.2908 193.426L21.3107 193.528L21.3314 193.63L21.3526 193.732L21.3623 193.776L21.3759 193.833L21.4004 193.934L21.4255 194.034L21.4513 194.135L21.4777 194.234L21.5042 194.334L21.5319 194.434L21.5602 194.533L21.5886 194.632L21.6183 194.731L21.6479 194.829L21.6782 194.927L21.7092 195.025L21.7414 195.122L21.773 195.219L21.8059 195.316L21.8394 195.413L21.8736 195.509L21.9077 195.606L21.9425 195.701L21.9786 195.797L22.0147 195.891L22.0515 195.987L22.0889 196.081L22.1263 196.175L22.165 196.269L22.2036 196.363L22.243 196.456L22.2829 196.549L22.3236 196.641L22.3648 196.733L22.4067 196.825L22.4344 196.886L22.4493 196.917L22.4931 197.007L22.5376 197.098L22.5827 197.188L22.6285 197.278L22.6749 197.367L22.7213 197.456L22.7684 197.544L22.8161 197.633L22.8645 197.721L22.9128 197.808L22.9625 197.895L23.0121 197.982L23.0617 198.068L23.1127 198.155L23.1636 198.24L23.2152 198.326L23.2674 198.411L23.3203 198.495L23.3731 198.579L23.4266 198.663L23.4808 198.747L23.5349 198.83L23.5897 198.912L23.6452 198.995L23.7013 199.076L23.7574 199.158L23.8147 199.239L23.8715 199.32L23.9295 199.4L23.9875 199.48L24.0462 199.56L24.1049 199.639L24.1648 199.717L24.2248 199.796L24.2847 199.874L24.346 199.951L24.4072 200.028L24.4685 200.105L24.531 200.182L24.5935 200.258L24.6561 200.333L24.7199 200.408L24.7837 200.483L24.8475 200.557L24.912 200.631L24.9771 200.704L25.0429 200.777L25.1086 200.85L25.175 200.922L25.2414 200.993L25.3085 201.065L25.3762 201.136L25.4439 201.206L25.5122 201.276L25.5812 201.345L25.6502 201.415L25.7192 201.483L25.7894 201.551L25.8597 201.62L25.93 201.687L26.0009 201.754L26.0725 201.82L26.144 201.886L26.2162 201.952L26.2884 202.017L26.3613 202.081L26.4348 202.146L26.5083 202.209L26.5818 202.273L26.6566 202.335L26.7307 202.398L26.8061 202.46L26.8764 202.518L26.8816 202.521L26.9576 202.581L27.0343 202.642L27.1111 202.701L27.1884 202.76L27.2658 202.818L27.3438 202.876L27.4218 202.934L27.5005 202.991L27.5798 203.047L27.6584 203.103L27.7384 203.159L27.8183 203.214L27.8982 203.269L27.9788 203.323L28.0594 203.377L28.1406 203.43L28.2219 203.482L28.3037 203.535L28.3856 203.586L28.4681 203.638L28.5507 203.688L28.6332 203.738L28.717 203.788L28.8002 203.837L28.884 203.885L28.9678 203.934L29.0522 203.981L29.1367 204.028L29.2218 204.075L29.3069 204.121L29.3926 204.167L29.4784 204.212L29.5641 204.256L29.6505 204.3L29.7369 204.343L29.8239 204.386L29.911 204.429L29.998 204.471L30.0857 204.512L30.1734 204.553L30.2617 204.593L30.35 204.633L30.4383 204.672L30.5273 204.711L30.6163 204.749L30.7052 204.787L30.7948 204.823L30.8845 204.86L30.9747 204.896L31.065 204.931L31.1552 204.966L31.2461 205L31.337 205.034L31.4279 205.068L31.5195 205.1L31.611 205.132L31.7026 205.164L31.7948 205.195L31.887 205.226L31.9792 205.255L32.072 205.285L32.1648 205.313L32.2577 205.341L32.3505 205.369L32.444 205.396L32.5375 205.423L32.6316 205.448L32.7251 205.474L32.8192 205.499L32.914 205.523L33.0081 205.546L33.1029 205.569L33.1976 205.592L33.293 205.614L33.3878 205.635L33.4832 205.656L33.5786 205.676L33.6747 205.695L33.7701 205.714L33.8662 205.732L33.9629 205.75L34.0589 205.767L34.1556 205.784L34.2517 205.8L34.3484 205.815L34.4458 205.83L34.5425 205.844L34.6398 205.858L34.7372 205.871L34.8345 205.883L34.9319 205.894L35.0299 205.905L35.1278 205.916L35.2258 205.926L35.3238 205.935L35.4218 205.944L35.5205 205.952L35.6185 205.959L35.7171 205.966L35.8157 205.972L35.9144 205.978L36.013 205.983L36.1123 205.987L36.2116 205.991L36.3102 205.994L36.4095 205.996L36.5088 205.998L36.6087 205.999L36.708 206H36.8073L36.9072 205.999L37.0071 205.998L37.1064 205.996L37.2063 205.994L37.3063 205.99L37.4068 205.986L37.5068 205.982L37.6067 205.977L37.7073 205.97L37.8072 205.964L37.9071 205.957L38.0071 205.95L38.1063 205.941L38.2056 205.932L38.3049 205.923L38.4035 205.912L38.5022 205.902L38.6002 205.891L38.6775 205.881L38.6988 205.878L38.7962 205.866L38.8942 205.853L38.9915 205.84L39.0889 205.826L39.1856 205.811L39.2829 205.796L39.379 205.78L39.4757 205.764L39.5717 205.746L39.6671 205.729L39.7626 205.711L39.858 205.692L39.9527 205.673L40.0475 205.653L40.1423 205.632L40.2364 205.612L40.3305 205.59L40.424 205.568L40.5175 205.545L40.611 205.522L40.7038 205.498L40.7966 205.473L40.8888 205.449L40.981 205.423L41.0732 205.397L41.1648 205.37L41.2557 205.343L41.3472 205.316L41.4375 205.288L41.5284 205.259L41.618 205.23L41.7082 205.2L41.7979 205.17L41.8868 205.139L41.9758 205.108L42.0648 205.076L42.1531 205.043L42.2414 205.011L42.3291 204.977L42.4168 204.943L42.5038 204.909L42.5908 204.874L42.6772 204.839L42.7636 204.803L42.85 204.766L42.9357 204.729L43.0208 204.692L43.1059 204.654L43.1904 204.615L43.2749 204.577L43.3593 204.538L43.4431 204.498L43.5263 204.458L43.6095 204.417L43.6926 204.375L43.7751 204.333L43.857 204.292L43.9389 204.249L44.0201 204.206L44.1014 204.162L44.1826 204.118L44.2632 204.073L44.3431 204.029L44.4231 203.983L44.5024 203.938L44.5816 203.891L44.6603 203.844L44.739 203.797L44.817 203.75L44.895 203.701L44.9723 203.653L45.0491 203.604L45.1258 203.555L45.2025 203.505L45.2779 203.455L45.354 203.404L45.4294 203.353L45.5042 203.302L45.5784 203.249L45.6531 203.197L45.7266 203.145L45.8001 203.092L45.873 203.038L45.9458 202.984L46.018 202.93L46.0902 202.875L46.1618 202.819L46.2334 202.764L46.3043 202.708L46.3745 202.652L46.4448 202.595L46.5144 202.538L46.5834 202.481L46.6524 202.423L46.7214 202.364L46.7897 202.306L46.8574 202.247L46.9245 202.187L46.9915 202.128L47.0586 202.068L47.1243 202.007L47.1901 201.946L47.2558 201.885L47.321 201.823L47.3854 201.761L47.4499 201.699L47.5137 201.636L47.5769 201.573L47.6401 201.51L47.7026 201.446L47.7652 201.382L47.827 201.318L47.8883 201.253L47.9489 201.188L48.0095 201.122L48.0701 201.056L48.1294 200.991L48.1887 200.924L48.248 200.857L48.3067 200.79L48.3647 200.723L48.4221 200.655L48.4795 200.587L48.5362 200.518L48.5923 200.45L48.6484 200.381L48.7038 200.312L48.7593 200.242L48.8134 200.172L48.8676 200.102L48.9217 200.031L48.9753 199.96L49.0281 199.889L49.0803 199.818L49.1326 199.746L49.1841 199.674L49.2351 199.602L49.286 199.529L49.3356 199.456L49.3859 199.383L49.4349 199.309L49.4839 199.236L49.5323 199.162L49.5806 199.087L49.6277 199.013L49.6747 198.938L49.7218 198.863L49.7676 198.788L49.8134 198.712L49.8585 198.636L49.9036 198.56L49.9474 198.484L49.9913 198.407L50.0345 198.33L50.0777 198.253L50.1202 198.175L50.1621 198.098L50.2034 198.02L50.2447 197.941L50.2853 197.864L50.3252 197.784L50.3646 197.706L50.4039 197.627L50.4419 197.548L50.4806 197.468L50.518 197.388L50.5547 197.308L50.5915 197.228L50.6276 197.147L50.6637 197.067L50.6985 196.986L50.7333 196.905L50.7675 196.823L50.801 196.742L50.8345 196.66L50.8674 196.578L50.8997 196.496L50.9313 196.413L50.9622 196.331L50.9931 196.248L51.0228 196.165L51.0525 196.082L51.0821 195.999L51.1105 195.915L51.1388 195.831L51.1666 195.748L51.1936 195.663L51.2201 195.579L51.2459 195.495L51.2717 195.41L51.2968 195.326L51.3213 195.241L51.3451 195.155L51.369 195.07L51.3916 194.984L51.4141 194.899L51.4361 194.813L51.4573 194.727L51.4786 194.641L51.4986 194.554L51.5186 194.468L51.5379 194.382L51.5566 194.295L51.5747 194.208L51.5921 194.121L51.6095 194.034L51.6262 193.947L51.6417 193.859L51.6578 193.772L51.6727 193.683L51.6868 193.596L51.701 193.508L51.7139 193.42L51.7268 193.331L51.7391 193.243L51.7507 193.154L51.7616 193.066L51.7726 192.977L51.7822 192.888L51.7919 192.8L51.8009 192.71L51.8087 192.621L51.8164 192.532L51.8242 192.442L51.8306 192.353L51.8364 192.263L51.8422 192.174L51.8474 192.084L51.8512 191.994L51.8551 191.904L51.8583 191.814L51.8615 191.723L51.8635 191.633L51.8648 191.543L51.8661 191.452V191.362V191.271L51.8654 191.181L51.8641 191.09L51.8622 190.999L51.8596 190.908L51.8564 190.818L51.8525 190.726L51.8487 190.635L51.8435 190.544L51.8383 190.453L54 190.446L53.9948 190.348L53.989 190.243L53.9871 190.204L53.9832 190.139L53.9761 190.034L53.9691 189.931L53.9613 189.826L53.9523 189.723L53.9433 189.62L53.9336 189.516L53.9226 189.413L53.9117 189.31L53.9001 189.208L53.8878 189.105L53.8743 189.003L53.8607 188.901L53.8466 188.8L53.8317 188.698L53.8163 188.597L53.7995 188.496L53.7827 188.395L53.7653 188.294L53.7473 188.195L53.7292 188.094L53.7099 187.994L53.6899 187.895L53.6693 187.795L53.6486 187.696L53.6267 187.598L53.6042 187.499L53.5816 187.401L53.5584 187.303L53.5339 187.205L53.5094 187.107L53.4842 187.01L53.4585 186.914L53.432 186.816L53.4056 186.72L53.3779 186.624L53.3495 186.528L53.3211 186.433L53.2921 186.338L53.2618 186.242L53.2315 186.148L53.2012 186.053L53.1696 185.959L53.1374 185.865L53.1052 185.771L53.0716 185.678L53.0381 185.585L53.0039 185.492L52.9691 185.4L52.9337 185.308L52.8982 185.216L52.8615 185.125L52.8247 185.033L52.7873 184.943L52.7493 184.852L52.7113 184.762L52.6719 184.672L52.6326 184.582L52.5926 184.493L52.552 184.404L52.5108 184.315L52.4695 184.227L52.4269 184.139L52.3844 184.051L52.3412 183.964L52.298 183.877L52.2535 183.79L52.209 183.704L52.1639 183.618L52.1188 183.532L52.0724 183.447L52.0259 183.362L51.9789 183.277L51.9312 183.193L51.8835 183.109L51.8345 183.026L51.7855 182.942L51.7365 182.86L51.6862 182.777L51.6359 182.695L51.585 182.613L51.534 182.531L51.4818 182.45L51.4296 182.37L51.3774 182.289L51.3239 182.209L51.2704 182.13L51.2162 182.05L51.1621 181.971L51.1073 181.893L51.0518 181.815L50.9957 181.737L50.9396 181.66L50.8829 181.582L50.8255 181.506L50.7681 181.43L50.7101 181.354L50.6515 181.278L50.5928 181.203L50.5335 181.129L50.4735 181.054L50.4136 180.98L50.353 180.907L50.2924 180.834L50.2305 180.761L50.1692 180.688L50.1067 180.616L50.0442 180.545L49.981 180.474L49.9178 180.403L49.854 180.333L49.7901 180.263L49.725 180.193L49.6606 180.125L49.6064 180.068L49.5948 180.056L49.5303 179.987L49.4646 179.918L49.3988 179.85L49.3324 179.783L49.266 179.715L49.199 179.648L49.1313 179.582L49.0636 179.516L48.9959 179.451L48.9269 179.385L48.8579 179.321L48.7889 179.256L48.7193 179.192L48.649 179.129L48.5788 179.066L48.5085 179.003L48.4369 178.941L48.3654 178.88L48.2938 178.818L48.2216 178.757L48.1494 178.697L48.0765 178.637L48.003 178.577L47.9296 178.518L47.8554 178.459L47.7813 178.401L47.7065 178.343L47.6317 178.286L47.5563 178.229L47.4808 178.173L47.4048 178.117L47.3287 178.061L47.252 178.007L47.1753 177.952L47.0979 177.898L47.0205 177.845L46.9425 177.791L46.8645 177.738L46.7859 177.686L46.7072 177.635L46.6279 177.583L46.5486 177.532L46.4687 177.482L46.3887 177.432L46.3081 177.383L46.2276 177.334L46.1463 177.285L46.0651 177.238L45.9839 177.19L45.902 177.143L45.8195 177.097L45.7369 177.051L45.6544 177.005L45.5713 176.96L45.4881 176.916L45.4043 176.872L45.3205 176.828L45.2367 176.785L45.1522 176.742L45.0671 176.701L44.9827 176.659L44.8976 176.618L44.8118 176.578L44.7261 176.538L44.6403 176.499L44.5539 176.459L44.4675 176.421L44.3805 176.383L44.2935 176.346L44.2064 176.309L44.1188 176.273L44.0311 176.237L43.9428 176.202L43.8544 176.167L43.7661 176.132L43.6771 176.099L43.5882 176.066L43.5211 176.041L43.4992 176.033L43.4102 176L43.3206 175.967L43.2317 175.935L43.1414 175.903L43.0518 175.872L42.9615 175.842L42.8713 175.812L42.7804 175.783L42.6895 175.754L42.5986 175.725L42.507 175.698L42.4155 175.671L42.3239 175.644L42.2317 175.618L42.1395 175.592L42.0467 175.567L41.9545 175.543L41.8617 175.519L41.7682 175.496L41.6754 175.473L41.5819 175.451L41.4878 175.429L41.3943 175.408L41.3002 175.388L41.206 175.368L41.1113 175.349L41.0171 175.33L40.9224 175.312L40.827 175.294L40.7322 175.277L40.6368 175.261L40.5413 175.245L40.4453 175.23L40.3795 175.219L40.3499 175.215L40.2538 175.199L40.1578 175.184L40.0617 175.17L39.965 175.156L39.8689 175.143L39.7722 175.13L39.6749 175.118L39.5782 175.107L39.4808 175.096L39.3835 175.086L39.2861 175.076L39.1881 175.067L39.0901 175.059L38.9921 175.051L38.8942 175.044L38.7955 175.037L38.6975 175.031L38.5982 175.026L38.4996 175.021L38.401 175.017L38.3017 175.014L38.2024 175.01L38.1031 175.008L38.0032 175.006L37.9039 175.006L37.804 175.005L37.7266 175.006L37.704 175.005L37.6041 175.003L37.5042 175.001Z" fill="url(#paint0_linear)"/>
<defs>
<linearGradient id="paint0_linear" x1="407.765" y1="-75.1859" x2="334.471" y2="365.776" gradientUnits="userSpaceOnUse">
<stop stop-color="#F9FBFF"/>
<stop offset="1" stop-color="#ECF2FF"/>
</linearGradient>
</defs>
</svg>
