<svg width="110" height="13" viewBox="0 0 110 13" fill="none" xmlns="http://www.w3.org/2000/svg">
<path fill-rule="evenodd" clip-rule="evenodd" d="M11.07 3.18213L0.345947 6.10392L11.07 9.02571V3.18213Z" fill="#FF2B59"/>
<path fill-rule="evenodd" clip-rule="evenodd" d="M11.07 3.18213L0.345947 6.10392L11.07 9.02571V3.18213Z" fill="#BA2B59"/>
<path fill-rule="evenodd" clip-rule="evenodd" d="M109.75 0.362793H106.855L103.359 6.10008H106.254L109.75 0.362793Z" fill="white"/>
<path fill-rule="evenodd" clip-rule="evenodd" d="M106.254 6.09972L102.757 0.362793H99.8625L103.359 6.09972L99.8625 11.8366H102.757L106.254 6.09972Z" fill="#FF2B59"/>
<path fill-rule="evenodd" clip-rule="evenodd" d="M95.8103 2.65263H99.2317V0.36287H95.8103H93.2865H89.8654V2.65263H93.2865V11.8371H95.8103V2.65263ZM85.2469 11.8371H87.7707V0.362512H85.2469V11.8371ZM81.089 3.71663L82.9249 1.99233C81.8234 0.85067 80.2712 0.135254 78.5473 0.135254C75.2064 0.135254 72.4975 2.80724 72.4975 6.10338C72.4975 9.39951 75.2064 12.0711 78.5473 12.0711C80.2712 12.0711 81.8234 11.3557 82.9249 10.2141L81.089 8.49048C80.4491 9.15329 79.5483 9.56844 78.5473 9.56844C76.6075 9.56844 75.0346 8.017 75.0346 6.10338C75.0346 4.1894 76.6075 2.63796 78.5473 2.63796C79.5483 2.63796 80.4494 3.05311 81.089 3.71663ZM70.8395 6.10338C70.8395 2.80724 68.1306 0.135254 64.7897 0.135254C61.4489 0.135254 58.7407 2.80724 58.7407 6.10338C58.7407 9.39951 61.4489 12.0711 64.7897 12.0711C68.1306 12.0711 70.8395 9.39951 70.8395 6.10338ZM68.3024 6.10338C68.3024 8.017 66.7295 9.56844 64.7897 9.56844C62.8496 9.56844 61.2774 8.017 61.2774 6.10338C61.2774 4.1894 62.8496 2.63796 64.7897 2.63796C66.7295 2.63796 68.3024 4.1894 68.3024 6.10338ZM52.4179 11.8371H57.9598V9.54768H52.4179V0.36287H49.8945V9.54768V11.8371H52.4179ZM48.0467 4.37621C48.0467 2.15982 46.0637 0.36287 43.6175 0.36287H41.4054H38.8819V2.65263V6.10015V8.38956V11.8371H41.4054V8.38956H43.6175C46.0637 8.38956 48.0467 6.59297 48.0467 4.37621ZM45.52 4.37621C45.52 5.32855 44.6683 6.10015 43.6175 6.10015H41.4054V2.65263H43.6175C44.6683 2.65263 45.52 3.42423 45.52 4.37621ZM33.6328 11.8371H36.1563V0.36287H33.6328H33.3071L30.4183 5.20902L27.4854 0.36287H27.1798H24.6563V11.8371H27.1798V4.30249L30.4061 9.33939L33.6328 4.30249V11.8371ZM16.4278 11.8371H22.3859V9.54768H16.4278V7.24468H20.9944V4.95527H16.4278V2.65263H22.3859V0.36287H16.4278H13.9043V2.65263V4.95527V7.24468V9.54768V11.8371H16.4278Z" fill="white"/>
<path fill-rule="evenodd" clip-rule="evenodd" d="M11.5168 6.4534V0.366455H0.345703L11.5168 6.4534Z" fill="#FF2B59"/>
<path fill-rule="evenodd" clip-rule="evenodd" d="M11.5168 5.76001V11.847H0.345703L11.5168 5.76001Z" fill="#FF2B59"/>
</svg>
