<svg width="110" height="13" viewBox="0 0 110 13" fill="none" xmlns="http://www.w3.org/2000/svg">
<path fill-rule="evenodd" clip-rule="evenodd" d="M11.07 3.18201L0.345947 6.1038L11.07 9.02558V3.18201Z" fill="#FF2B59"/>
<path fill-rule="evenodd" clip-rule="evenodd" d="M11.07 3.18201L0.345947 6.1038L11.07 9.02558V3.18201Z" fill="#BA2B59"/>
<path fill-rule="evenodd" clip-rule="evenodd" d="M109.75 0.362549H106.855L103.359 6.09983H106.254L109.75 0.362549Z" fill="#002069"/>
<path fill-rule="evenodd" clip-rule="evenodd" d="M106.254 6.0996L102.757 0.362671H99.8625L103.359 6.0996L99.8625 11.8365H102.757L106.254 6.0996Z" fill="#FF2B59"/>
<path fill-rule="evenodd" clip-rule="evenodd" d="M95.8103 2.65251H99.2317V0.362748H95.8103H93.2865H89.8654V2.65251H93.2865V11.837H95.8103V2.65251ZM85.2469 11.837H87.7707V0.36239H85.2469V11.837ZM81.089 3.71651L82.9249 1.99221C81.8234 0.850548 80.2712 0.135132 78.5473 0.135132C75.2064 0.135132 72.4975 2.80712 72.4975 6.10325C72.4975 9.39939 75.2064 12.071 78.5473 12.071C80.2712 12.071 81.8234 11.3556 82.9249 10.2139L81.089 8.49036C80.4491 9.15317 79.5483 9.56831 78.5473 9.56831C76.6075 9.56831 75.0346 8.01688 75.0346 6.10325C75.0346 4.18927 76.6075 2.63784 78.5473 2.63784C79.5483 2.63784 80.4494 3.05298 81.089 3.71651ZM70.8395 6.10325C70.8395 2.80712 68.1306 0.135132 64.7897 0.135132C61.4489 0.135132 58.7407 2.80712 58.7407 6.10325C58.7407 9.39939 61.4489 12.071 64.7897 12.071C68.1306 12.071 70.8395 9.39939 70.8395 6.10325ZM68.3024 6.10325C68.3024 8.01688 66.7295 9.56832 64.7897 9.56832C62.8496 9.56832 61.2774 8.01688 61.2774 6.10325C61.2774 4.18927 62.8496 2.63784 64.7897 2.63784C66.7295 2.63784 68.3024 4.18927 68.3024 6.10325ZM52.4179 11.837H57.9598V9.54756H52.4179V0.362748H49.8945V9.54756V11.837H52.4179ZM48.0467 4.37609C48.0467 2.1597 46.0637 0.362748 43.6175 0.362748H41.4054H38.8819V2.65251V6.10003V8.38944V11.837H41.4054V8.38944H43.6175C46.0637 8.38944 48.0467 6.59284 48.0467 4.37609ZM45.52 4.37609C45.52 5.32843 44.6683 6.10003 43.6175 6.10003H41.4054V2.65251H43.6175C44.6683 2.65251 45.52 3.42411 45.52 4.37609ZM33.6328 11.837H36.1563V0.362748H33.6328H33.3071L30.4183 5.20889L27.4854 0.362748H27.1798H24.6563V11.837H27.1798V4.30237L30.4061 9.33927L33.6328 4.30237V11.837ZM16.4278 11.837H22.3859V9.54756H16.4278V7.24456H20.9944V4.95515H16.4278V2.65251H22.3859V0.362748H16.4278H13.9043V2.65251V4.95515V7.24456V9.54756V11.837H16.4278Z" fill="#002069"/>
<path fill-rule="evenodd" clip-rule="evenodd" d="M11.5168 6.4534V0.366455H0.345703L11.5168 6.4534Z" fill="#FF2B59"/>
<path fill-rule="evenodd" clip-rule="evenodd" d="M11.5168 5.75989V11.8468H0.345703L11.5168 5.75989Z" fill="#FF2B59"/>
</svg>
