<svg width="12" height="6" viewBox="0 0 12 6" fill="none" xmlns="http://www.w3.org/2000/svg">
<path d="M11.0449 0.537109L10.6895 0.181641C10.6621 0.145182 10.6211 0.117839 10.5664 0.0996094C10.5208 0.0813802 10.4707 0.0722656 10.416 0.0722656C10.3704 0.0722656 10.3203 0.0813802 10.2656 0.0996094C10.2201 0.117839 10.1836 0.145182 10.1562 0.181641L6 4.36523L1.83008 0.195312C1.80273 0.158854 1.76172 0.13151 1.70703 0.113281C1.66146 0.0950521 1.61589 0.0859375 1.57031 0.0859375C1.51562 0.0859375 1.46094 0.0950521 1.40625 0.113281C1.36068 0.13151 1.32422 0.158854 1.29688 0.195312L0.941406 0.550781C0.904948 0.58724 0.877604 0.628255 0.859375 0.673828C0.841146 0.719401 0.832031 0.769531 0.832031 0.824219C0.832031 0.869792 0.841146 0.919922 0.859375 0.974609C0.877604 1.02018 0.904948 1.05664 0.941406 1.08398L5.11133 5.25391C5.54883 5.72786 5.94987 5.84635 6.31445 5.60938C6.67904 5.3724 6.86133 5.25391 6.86133 5.25391L11.0176 1.08398C11.0632 1.05664 11.0951 1.02018 11.1133 0.974609C11.1406 0.919922 11.1543 0.860677 11.1543 0.796875C11.1543 0.751302 11.1452 0.705729 11.127 0.660156C11.1087 0.614583 11.0814 0.573568 11.0449 0.537109Z" fill="#757575"/>
</svg>
