<svg width="4" height="11" viewBox="0 0 4 11" fill="none" xmlns="http://www.w3.org/2000/svg">
<path fill-rule="evenodd" clip-rule="evenodd" d="M2 3.31836C2.35547 3.31836 2.65625 3.19303 2.90234 2.94238C3.14844 2.69173 3.27148 2.38867 3.27148 2.0332C3.27148 1.68685 3.14844 1.38835 2.90234 1.1377C2.65625 0.887044 2.35547 0.761719 2 0.761719C1.64453 0.761719 1.34375 0.887044 1.09766 1.1377C0.851562 1.38835 0.728516 1.68685 0.728516 2.0332C0.728516 2.38867 0.851562 2.69173 1.09766 2.94238C1.34375 3.19303 1.64453 3.31836 2 3.31836ZM2 7.14648C2.35547 7.14648 2.65625 7.02344 2.90234 6.77734C3.14844 6.53125 3.27148 6.23047 3.27148 5.875C3.27148 5.51953 3.14844 5.21875 2.90234 4.97266C2.65625 4.72656 2.35547 4.60352 2 4.60352C1.64453 4.60352 1.34375 4.72656 1.09766 4.97266C0.851562 5.21875 0.728516 5.51953 0.728516 5.875C0.728516 6.23047 0.851562 6.53125 1.09766 6.77734C1.34375 7.02344 1.64453 7.14648 2 7.14648ZM2.89551 10.6191C2.64486 10.8652 2.34635 10.9883 2 10.9883C1.64453 10.9883 1.34375 10.863 1.09766 10.6123C0.851562 10.3617 0.728516 10.0632 0.728516 9.7168C0.728516 9.36133 0.851562 9.05827 1.09766 8.80762C1.34375 8.55697 1.64453 8.43164 2 8.43164C2.35547 8.43164 2.65625 8.55697 2.90234 8.80762C3.14844 9.05827 3.27148 9.36133 3.27148 9.7168V9.73047C3.27148 10.0768 3.14616 10.373 2.89551 10.6191Z" fill="#1B203C"/>
</svg>
