<svg width="18" height="19" viewBox="0 0 18 19" fill="none" xmlns="http://www.w3.org/2000/svg">
<path d="M9 0.125C7.75781 0.125 6.5918 0.359375 5.50195 0.828125C4.40039 1.29687 3.43945 1.94141 2.61914 2.76172C1.81055 3.57031 1.17188 4.52539 0.703125 5.62695C0.234375 6.7168 0 7.88281 0 9.125C0 10.3672 0.234375 11.5332 0.703125 12.623C1.17188 13.7246 1.81055 14.6855 2.61914 15.5059C3.43945 16.3145 4.40039 16.9531 5.50195 17.4219C6.5918 17.8906 7.75781 18.125 9 18.125C10.2422 18.125 11.4082 17.8906 12.498 17.4219C13.5996 16.9531 14.5547 16.3145 15.3633 15.5059C16.1836 14.6855 16.8281 13.7246 17.2969 12.623C17.7656 11.5332 18 10.3672 18 9.125C18 7.88281 17.7656 6.7168 17.2969 5.62695C16.8281 4.52539 16.1836 3.57031 15.3633 2.76172C14.5547 1.94141 13.5996 1.29687 12.498 0.828125C11.4082 0.359375 10.2422 0.125 9 0.125ZM8.57812 3.99219H9.4043C9.58008 3.99219 9.73242 4.05664 9.86133 4.18555C9.99023 4.31445 10.0547 4.4668 10.0547 4.64258C10.0547 4.64258 10.0547 4.64844 10.0547 4.66016L9.86133 10.4082C9.84961 10.584 9.7793 10.7305 9.65039 10.8477C9.5332 10.9648 9.38672 11.0234 9.21094 11.0234H8.77148C8.5957 11.0234 8.44336 10.9648 8.31445 10.8477C8.19727 10.7305 8.13281 10.584 8.12109 10.4082L7.92773 4.66016C7.92773 4.64844 7.92773 4.63672 7.92773 4.625C7.92773 4.46094 7.98633 4.31445 8.10352 4.18555C8.23242 4.05664 8.38477 3.99219 8.56055 3.99219C8.57227 3.99219 8.57812 3.99219 8.57812 3.99219C8.57812 3.99219 8.58398 3.99219 8.5957 3.99219H8.57812ZM9.80859 13.959C9.71484 14.0527 9.59766 14.1289 9.45703 14.1875C9.32812 14.2344 9.19336 14.2578 9.05273 14.2578C9.04102 14.2578 9.0293 14.2578 9.01758 14.2578C9.00586 14.2578 9 14.2578 9 14.2578C8.98828 14.2578 8.97656 14.2578 8.96484 14.2578C8.96484 14.2578 8.95898 14.2578 8.94727 14.2578C8.79492 14.2578 8.6543 14.2344 8.52539 14.1875C8.39648 14.1289 8.28516 14.0527 8.19141 13.959C8.08594 13.8535 8.00391 13.7363 7.94531 13.6074C7.89844 13.4785 7.875 13.3379 7.875 13.1855C7.875 13.0449 7.89844 12.9102 7.94531 12.7812C8.00391 12.6523 8.08594 12.5352 8.19141 12.4297C8.28516 12.3359 8.39648 12.2656 8.52539 12.2188C8.66602 12.1602 8.80664 12.1309 8.94727 12.1309C8.95898 12.1309 8.96484 12.1309 8.96484 12.1309C8.97656 12.1309 8.98828 12.1309 9 12.1309C9 12.1309 9.00586 12.1309 9.01758 12.1309C9.0293 12.1309 9.04102 12.1309 9.05273 12.1309C9.19336 12.1309 9.32812 12.1602 9.45703 12.2188C9.59766 12.2656 9.71484 12.3359 9.80859 12.4297C9.91406 12.5234 9.99023 12.6406 10.0371 12.7812C10.0957 12.9102 10.125 13.0449 10.125 13.1855C10.125 13.3379 10.0957 13.4785 10.0371 13.6074C9.99023 13.7363 9.91406 13.8535 9.80859 13.959Z" fill="#FC642D"/>
</svg>
