<svg width="14" height="14" viewBox="0 0 14 14" fill="none" xmlns="http://www.w3.org/2000/svg">
<path d="M3.02148 13.7129C3.51367 13.2298 4.08333 12.8516 4.73047 12.5781C5.38672 12.2956 6.08398 12.1543 6.82227 12.1543C7.21419 12.1543 7.59245 12.1908 7.95703 12.2637C8.32161 12.3457 8.66797 12.4596 8.99609 12.6055C9.33333 12.7513 9.64779 12.929 9.93945 13.1387C10.2402 13.3483 10.5137 13.5853 10.7598 13.8496C11.252 13.5306 11.694 13.1615 12.0859 12.7422C12.487 12.3229 12.8288 11.8626 13.1113 11.3613C13.3939 10.8509 13.6126 10.3086 13.7676 9.73438C13.9225 9.16016 14 8.56315 14 7.94336C14 6.97721 13.8177 6.07031 13.4531 5.22266C13.0794 4.375 12.5736 3.63672 11.9355 3.00781C11.3066 2.36979 10.5684 1.86393 9.7207 1.49023C8.87305 1.12565 7.96615 0.943359 7 0.943359C6.03385 0.943359 5.1224 1.12565 4.26562 1.49023C3.41797 1.86393 2.67513 2.36979 2.03711 3.00781C1.4082 3.63672 0.911458 4.375 0.546875 5.22266C0.182292 6.07031 0 6.97721 0 7.94336C0 8.54492 0.0683594 9.11914 0.205078 9.66602C0.350911 10.222 0.55599 10.7461 0.820312 11.2383C1.08464 11.7305 1.39909 12.1816 1.76367 12.5918C2.13737 13.0111 2.55208 13.3802 3.00781 13.6992L3.02148 13.7129ZM7 5.42773C7.70182 5.42773 8.29883 5.67839 8.79102 6.17969C9.29232 6.67188 9.54297 7.26888 9.54297 7.9707C9.54297 8.67253 9.29232 9.27409 8.79102 9.77539C8.29883 10.2676 7.70182 10.5137 7 10.5137C6.29818 10.5137 5.69661 10.2676 5.19531 9.77539C4.70312 9.27409 4.45703 8.67253 4.45703 7.9707C4.45703 7.26888 4.70312 6.67188 5.19531 6.17969C5.69661 5.67839 6.29818 5.42773 7 5.42773Z" fill="#8A91B8"/>
</svg>
