<svg width="16" height="10" viewBox="0 0 14 8" fill="none" xmlns="http://www.w3.org/2000/svg">
<path d="M13.4863 1.11914L13.0293 0.662109C12.9941 0.615234 12.9414 0.580078 12.8711 0.556641C12.8125 0.533203 12.748 0.521484 12.6777 0.521484C12.6191 0.521484 12.5547 0.533203 12.4844 0.556641C12.4258 0.580078 12.3789 0.615234 12.3438 0.662109L7 6.04102L1.63867 0.679688C1.60352 0.632813 1.55078 0.597656 1.48047 0.574219C1.42188 0.550781 1.36328 0.539062 1.30469 0.539062C1.23438 0.539062 1.16406 0.550781 1.09375 0.574219C1.03516 0.597656 0.988281 0.632813 0.953125 0.679688L0.496094 1.13672C0.449219 1.18359 0.414062 1.23633 0.390625 1.29492C0.367188 1.35352 0.355469 1.41797 0.355469 1.48828C0.355469 1.54688 0.367188 1.61133 0.390625 1.68164C0.414062 1.74023 0.449219 1.78711 0.496094 1.82227L5.85742 7.18359C6.41992 7.79297 6.93555 7.94531 7.4043 7.64062C7.87305 7.33594 8.10742 7.18359 8.10742 7.18359L13.4512 1.82227C13.5098 1.78711 13.5508 1.74023 13.5742 1.68164C13.6094 1.61133 13.627 1.53516 13.627 1.45312C13.627 1.39453 13.6152 1.33594 13.5918 1.27734C13.5684 1.21875 13.5332 1.16602 13.4863 1.11914Z" fill="#757575"/>
</svg>
