<svg width="17" height="18" viewBox="0 0 17 18" fill="none" xmlns="http://www.w3.org/2000/svg">
<path fill-rule="evenodd" clip-rule="evenodd" d="M16.5868 15.6353L13.2312 12.271C14.1752 11.0671 14.7432 9.55254 14.7432 7.9065C14.7432 3.99814 11.5714 0.818359 7.67308 0.818359C3.77382 0.818359 0.602051 3.99814 0.602051 7.9065C0.602051 11.814 3.77382 14.9938 7.67308 14.9938C9.20053 14.9938 10.6129 14.4994 11.7707 13.6707L15.1581 17.0672C15.3556 17.2648 15.6138 17.3632 15.8729 17.3632C16.1311 17.3632 16.3893 17.2648 16.5868 17.0672C16.9809 16.672 16.9809 16.0314 16.5868 15.6353ZM2.62115 7.90655C2.62115 5.11499 4.88786 2.84396 7.67279 2.84396C10.4577 2.84396 12.7226 5.11499 12.7226 7.90655C12.7226 10.6981 10.4577 12.9683 7.67279 12.9683C4.88786 12.9683 2.62115 10.6981 2.62115 7.90655Z" fill="#FF2B59"/>
</svg>
