<svg width="4" height="7" viewBox="0 0 4 7" fill="none" xmlns="http://www.w3.org/2000/svg">
<path fill-rule="evenodd" clip-rule="evenodd" d="M0.328767 0.0741722C0.354553 0.049448 0.383561 0.0309051 0.415794 0.018543C0.448026 0.00618093 0.483481 -2.11336e-08 0.522159 -2.28243e-08C0.554392 -2.42332e-08 0.588235 0.00618093 0.62369 0.018543C0.659146 0.0309051 0.686543 0.049448 0.705882 0.0741722L3.66479 2.91126C3.66479 2.91126 3.74859 3.03488 3.9162 3.28212C4.0838 3.52936 4 3.80132 3.66479 4.09801L0.715552 6.92583C0.696213 6.95055 0.668816 6.96909 0.63336 6.98146C0.597905 6.99382 0.564062 7 0.531829 7C0.493151 7 0.457696 6.99382 0.425464 6.98146C0.393231 6.96909 0.364223 6.95055 0.338437 6.92583L0.0870269 6.68477C0.0612411 6.66622 0.041902 6.63996 0.0290091 6.60596C0.0161163 6.57196 0.00966991 6.53642 0.0096699 6.49934C0.0096699 6.46843 0.0161162 6.43598 0.0290091 6.40199C0.041902 6.36799 0.0612411 6.34172 0.0870269 6.32318L3.03626 3.49536L0.077357 0.676821C0.0515712 0.658278 0.0322322 0.632009 0.0193393 0.598013C0.00644637 0.564017 2.32356e-08 0.531568 2.18846e-08 0.500662C2.02636e-08 0.463576 0.00644637 0.428035 0.0193393 0.39404C0.0322321 0.360044 0.0515712 0.333775 0.077357 0.315232L0.328767 0.0741722Z" fill="black"/>
</svg>
