<svg width="14" height="11" viewBox="0 0 14 11" fill="none" xmlns="http://www.w3.org/2000/svg">
<path d="M13.3633 1.20703L12.8887 0.714844C12.8418 0.667969 12.7832 0.632813 12.7129 0.609375C12.6426 0.574219 12.5723 0.556641 12.502 0.556641C12.4199 0.556641 12.3438 0.574219 12.2734 0.609375C12.2148 0.632813 12.1562 0.667969 12.0977 0.714844L4.5918 8.2207L2.11328 5.75977C2.06641 5.71289 2.00781 5.67773 1.9375 5.6543C1.87891 5.61914 1.80859 5.60156 1.72656 5.60156C1.65625 5.60156 1.58594 5.61914 1.51562 5.6543C1.44531 5.67773 1.38672 5.71289 1.33984 5.75977L0.865234 6.23438C0.806641 6.29297 0.759766 6.35742 0.724609 6.42773C0.701172 6.48633 0.689453 6.55664 0.689453 6.63867C0.689453 6.70898 0.701172 6.7793 0.724609 6.84961C0.759766 6.91992 0.806641 6.97852 0.865234 7.02539L3.32617 9.48633C3.95898 10.166 4.53906 10.3359 5.06641 9.99609C5.59375 9.65625 5.85742 9.48633 5.85742 9.48633L13.3633 1.98047C13.4219 1.93359 13.4629 1.875 13.4863 1.80469C13.5098 1.73438 13.5215 1.66406 13.5215 1.59375C13.5215 1.51172 13.5098 1.44141 13.4863 1.38281C13.4629 1.3125 13.4219 1.25391 13.3633 1.20703Z" fill="#01A69A"/>
</svg>
